<?xml version="1.0" encoding="UTF-8" standalone="no"?>
<!-- Generator: Adobe Illustrator 16.0.0, SVG Export Plug-In . SVG Version: 6.00 Build 0)  -->

<svg
   xmlns:dc="http://purl.org/dc/elements/1.1/"
   xmlns:cc="http://creativecommons.org/ns#"
   xmlns:rdf="http://www.w3.org/1999/02/22-rdf-syntax-ns#"
   xmlns:svg="http://www.w3.org/2000/svg"
   xmlns="http://www.w3.org/2000/svg"
   xmlns:sodipodi="http://sodipodi.sourceforge.net/DTD/sodipodi-0.dtd"
   xmlns:inkscape="http://www.inkscape.org/namespaces/inkscape"
   version="1.1"
   id="Layer_1"
   x="0px"
   y="0px"
   width="458.277px"
   height="329.76px"
   viewBox="22.249 7.938 458.277 329.76"
   enable-background="new 22.249 7.938 458.277 329.76"
   xml:space="preserve"
   sodipodi:docname="Emitter Diagram.svg"
   inkscape:version="0.92.3 (2405546, 2018-03-11)"><metadata
   id="metadata4793"><rdf:RDF><cc:Work
       rdf:about=""><dc:format>image/svg+xml</dc:format><dc:type
         rdf:resource="http://purl.org/dc/dcmitype/StillImage" /><dc:title /></cc:Work></rdf:RDF></metadata><defs
   id="defs4791">
	
	
	
	
	
	
	
	
	
	
	
	
	
	
	
	
	
	
	
	
	
	
	
	
	
	
	
	
	
	
	
	
	
	
	
	
	
	
	
	
	
	
	
	
	
	
	
	
	
	
	
	
	
	
	
	
	

	
	
	
	
	
	
	
	
	
	
	
	
	
	
	
	
	
	
	
	
	
	
	
	
	
	
	
	
	
	
	
	

	
	
	
	
	
	
	
	
	
	
	
	
	
	
	
	
	
	
	
	
	
	
	
	
	
	
	
	
	
	
	
	
	
	
	
	
	
	
	
	
	
	
	

	
	
	
	
	
	
	
	
	
	
	
	
	
	
	
	
	
	
	
	
	
	
	
	
	
	
	
	
	
	
	
	
	
	

	
	
	
	
	
	
	
	
	
	
	
	
	
	
	
	
	
	
	
	
	
	
	
	
	
	

	
	
	
	
	
	
	
	
	
	
	
	
	
	
	
	
	
	
	
	
	
	
	
	
	
	
	
	
	
	
	
	
	
	
	
	
	
	
	
	
	
	
	
	
	
	
	
	







</defs><sodipodi:namedview
   pagecolor="#ffffff"
   bordercolor="#666666"
   borderopacity="1"
   objecttolerance="10"
   gridtolerance="10"
   guidetolerance="10"
   inkscape:pageopacity="0"
   inkscape:pageshadow="2"
   inkscape:window-width="1366"
   inkscape:window-height="705"
   id="namedview4789"
   showgrid="false"
   inkscape:zoom="1.6254245"
   inkscape:cx="229.1385"
   inkscape:cy="168.95846"
   inkscape:window-x="-8"
   inkscape:window-y="-8"
   inkscape:window-maximized="1"
   inkscape:current-layer="Layer_1" />




















<g
   id="g12020"><g
     style="fill:#cccccc"
     id="g6257"
     transform="translate(-0.61349597,-7.1779951)"><path
       style="fill:#cccccc"
       id="path6255"
       d="m 279.602,177.046 h -10.801 v 13.5 h 23.102 v 8.701 h -23.102 v 14 c 0,3.501 0.6,4.001 3.801,4.001 h 9.9 c 3,0 3.5,-2.001 3.9,-12.2 2.1,1.601 5.899,3.199 8.5,3.699 -0.899,13.201 -3.5,17.002 -11.5,17.002 H 271.001 C 261.4,225.749 259,222.948 259,213.247 v -14 h -16.201 c -1.9,10.899 -8.3,21.001 -27.602,27.701 -1.2,-2.199 -4.1,-5.802 -6.101,-7.5 15.801,-5.201 21.801,-12.501 23.902,-20.201 h -21.602 v -8.701 h 22.701 v -13.5 h -9.9 v -3.2 c -4.5,3.4 -9.301,6.3 -14.101,8.601 -1.3,-2.201 -3.9,-5.401 -5.8,-7.201 6.5,-2.7 12.901,-6.901 18.601,-12.101 -2.8,-2.9 -7.5,-6.9 -11.3,-9.8 l 6,-5 c 3.601,2.6 8,6.1 11.101,8.9 3.2,-3.7 6,-7.8 8.2,-12 h -23.401 v -8.301 h 28.702 l 1.5,-0.4 c 2.9,1.5 4.8,2.3 6.601,3.2 -0.2,0.5 -0.8,0.9 -1.3,1.2 -3.8,10.5 -10.201,19.701 -18.001,27.102 h 42.403 c -8.901,-8.8 -15.901,-20.001 -20.701,-32.502 l 8.4,-2.5 c 1.601,4.1 3.5,8.1 5.799,11.9 4,-3.4 8.302,-7.6 11.002,-10.8 l 8.199,6.1 c -0.3,0.4 -0.8,0.6 -1.5,0.6 -0.3,0 -0.6,0 -0.898,-0.1 -3.2,3.1 -8.301,7.201 -12.701,10.401 1.8,2.3 3.7,4.6 5.7,6.7 4.7,-3.6 9.899,-8.4 13.2,-12.101 l 8.102,5.9 c -0.4,0.6 -1.3,0.8 -2.4,0.6 -3.399,3.1 -8.801,7.4 -13.5,10.701 5.301,4.4 11.2,8.1 17.602,10.601 -2.2,1.9 -5.102,5.6 -6.602,8.2 -4.801,-2.2 -9.301,-5 -13.5,-8.3 v 3.6 z M 259,190.547 v -13.5 h -15.5 v 13.5 z"
       inkscape:connector-curvature="0" /></g><g
     transform="translate(0,2)"
     id="g5070"><path
       inkscape:connector-curvature="0"
       id="path4254"
       d="M 200.728,19.392 V 7.938 h 8.492 v 1.938 h -6.18 v 2.539 h 5.75 v 1.93 h -5.75 v 3.117 h 6.398 v 1.93 z" /><path
       inkscape:connector-curvature="0"
       id="path4256"
       d="m 218.931,19.392 h -2.195 v -4.234 c 0,-0.896 -0.047,-1.475 -0.141,-1.738 -0.094,-0.263 -0.246,-0.467 -0.457,-0.613 -0.211,-0.146 -0.465,-0.219 -0.762,-0.219 -0.38,0 -0.722,0.104 -1.023,0.313 -0.302,0.208 -0.509,0.484 -0.621,0.828 -0.112,0.344 -0.168,0.979 -0.168,1.906 v 3.758 h -2.195 v -8.297 h 2.039 v 1.219 c 0.724,-0.938 1.635,-1.406 2.734,-1.406 0.484,0 0.927,0.087 1.328,0.262 0.401,0.175 0.704,0.397 0.91,0.668 0.206,0.271 0.349,0.578 0.43,0.922 0.081,0.344 0.121,0.836 0.121,1.477 z" /><path
       inkscape:connector-curvature="0"
       id="path4258"
       d="m 223.345,7.938 v 4.211 c 0.708,-0.828 1.555,-1.242 2.539,-1.242 0.505,0 0.961,0.094 1.367,0.281 0.406,0.187 0.712,0.427 0.918,0.719 0.206,0.292 0.346,0.615 0.422,0.969 0.075,0.354 0.113,0.904 0.113,1.648 v 4.867 h -2.195 v -4.383 c 0,-0.87 -0.042,-1.422 -0.125,-1.656 -0.083,-0.234 -0.23,-0.42 -0.441,-0.559 -0.211,-0.138 -0.476,-0.207 -0.793,-0.207 -0.365,0 -0.69,0.089 -0.977,0.266 -0.287,0.177 -0.496,0.444 -0.629,0.801 -0.133,0.357 -0.199,0.884 -0.199,1.582 v 4.156 H 221.15 V 7.938 Z" /><path
       inkscape:connector-curvature="0"
       id="path4260"
       d="m 232.571,13.626 -1.992,-0.359 c 0.224,-0.802 0.609,-1.396 1.156,-1.781 0.547,-0.385 1.359,-0.578 2.438,-0.578 0.979,0 1.708,0.116 2.188,0.348 0.479,0.232 0.816,0.526 1.012,0.883 0.195,0.357 0.293,1.012 0.293,1.965 l -0.023,2.563 c 0,0.729 0.035,1.267 0.105,1.613 0.07,0.347 0.202,0.718 0.395,1.113 h -2.172 c -0.058,-0.146 -0.128,-0.362 -0.211,-0.648 -0.037,-0.13 -0.063,-0.216 -0.078,-0.258 -0.375,0.365 -0.776,0.638 -1.203,0.82 -0.427,0.182 -0.883,0.273 -1.367,0.273 -0.854,0 -1.527,-0.231 -2.02,-0.695 -0.492,-0.463 -0.738,-1.049 -0.738,-1.758 0,-0.469 0.112,-0.887 0.336,-1.254 0.224,-0.367 0.538,-0.648 0.941,-0.844 0.403,-0.195 0.985,-0.366 1.746,-0.512 1.026,-0.192 1.737,-0.372 2.133,-0.539 v -0.219 c 0,-0.422 -0.104,-0.723 -0.313,-0.902 -0.208,-0.18 -0.602,-0.27 -1.18,-0.27 -0.391,0 -0.695,0.077 -0.914,0.23 -0.219,0.154 -0.396,0.424 -0.532,0.809 z m 2.938,1.781 c -0.281,0.094 -0.727,0.206 -1.336,0.336 -0.609,0.13 -1.008,0.258 -1.195,0.383 -0.287,0.203 -0.43,0.461 -0.43,0.773 0,0.308 0.114,0.573 0.344,0.797 0.229,0.224 0.521,0.336 0.875,0.336 0.396,0 0.773,-0.13 1.133,-0.391 0.266,-0.198 0.44,-0.44 0.523,-0.727 0.057,-0.188 0.086,-0.544 0.086,-1.07 z" /><path
       inkscape:connector-curvature="0"
       id="path4262"
       d="m 247.376,19.392 h -2.195 v -4.234 c 0,-0.896 -0.047,-1.475 -0.141,-1.738 -0.094,-0.263 -0.246,-0.467 -0.457,-0.613 -0.211,-0.146 -0.465,-0.219 -0.762,-0.219 -0.38,0 -0.722,0.104 -1.023,0.313 -0.302,0.208 -0.509,0.484 -0.621,0.828 -0.112,0.344 -0.168,0.979 -0.168,1.906 v 3.758 h -2.195 v -8.297 h 2.039 v 1.219 c 0.724,-0.938 1.635,-1.406 2.734,-1.406 0.484,0 0.927,0.087 1.328,0.262 0.401,0.175 0.704,0.397 0.91,0.668 0.206,0.271 0.349,0.578 0.43,0.922 0.081,0.344 0.121,0.836 0.121,1.477 z" /><path
       inkscape:connector-curvature="0"
       id="path4264"
       d="m 256.837,13.548 -2.164,0.391 c -0.073,-0.432 -0.237,-0.758 -0.496,-0.977 -0.258,-0.219 -0.593,-0.328 -1.004,-0.328 -0.547,0 -0.983,0.189 -1.309,0.566 -0.326,0.378 -0.488,1.009 -0.488,1.895 0,0.984 0.165,1.68 0.496,2.086 0.331,0.406 0.774,0.609 1.332,0.609 0.416,0 0.758,-0.118 1.022,-0.355 0.267,-0.237 0.453,-0.645 0.563,-1.223 l 2.155,0.367 c -0.225,0.99 -0.653,1.737 -1.288,2.242 -0.636,0.505 -1.487,0.758 -2.556,0.758 -1.213,0 -2.181,-0.383 -2.901,-1.148 -0.722,-0.766 -1.082,-1.825 -1.082,-3.18 0,-1.37 0.362,-2.436 1.086,-3.199 0.724,-0.763 1.703,-1.145 2.938,-1.145 1.01,0 1.813,0.218 2.409,0.652 0.596,0.436 1.026,1.098 1.287,1.989 z" /><path
       inkscape:connector-curvature="0"
       id="path4266"
       d="m 263.307,16.751 2.188,0.367 c -0.281,0.802 -0.727,1.413 -1.332,1.832 -0.607,0.419 -1.366,0.629 -2.277,0.629 -1.443,0 -2.511,-0.471 -3.203,-1.414 -0.547,-0.755 -0.82,-1.708 -0.82,-2.859 0,-1.375 0.359,-2.452 1.078,-3.23 0.72,-0.778 1.627,-1.168 2.728,-1.168 1.233,0 2.208,0.408 2.922,1.223 0.713,0.815 1.056,2.064 1.022,3.746 h -5.5 c 0.017,0.651 0.192,1.158 0.531,1.52 0.338,0.362 0.76,0.543 1.267,0.543 0.344,0 0.633,-0.094 0.866,-0.281 0.233,-0.187 0.409,-0.491 0.53,-0.908 z m 0.125,-2.219 c -0.017,-0.635 -0.181,-1.118 -0.492,-1.449 -0.313,-0.331 -0.693,-0.496 -1.142,-0.496 -0.479,0 -0.875,0.175 -1.188,0.523 -0.313,0.349 -0.467,0.823 -0.461,1.422 z" /><path
       inkscape:connector-curvature="0"
       id="path4268"
       d="m 267.234,11.095 h 2.023 v 1.133 c 0.725,-0.88 1.586,-1.32 2.586,-1.32 0.531,0 0.992,0.109 1.383,0.328 0.392,0.219 0.711,0.55 0.961,0.992 0.364,-0.442 0.758,-0.773 1.181,-0.992 0.422,-0.219 0.872,-0.328 1.352,-0.328 0.609,0 1.125,0.124 1.548,0.371 0.422,0.248 0.735,0.611 0.944,1.09 0.149,0.354 0.228,0.927 0.228,1.719 v 5.305 h -2.195 v -4.742 c 0,-0.823 -0.076,-1.354 -0.227,-1.594 -0.203,-0.313 -0.517,-0.469 -0.938,-0.469 -0.308,0 -0.597,0.094 -0.867,0.281 -0.271,0.188 -0.467,0.462 -0.586,0.824 -0.12,0.362 -0.181,0.934 -0.181,1.715 v 3.984 h -2.194 v -4.547 c 0,-0.807 -0.039,-1.328 -0.117,-1.563 -0.077,-0.235 -0.198,-0.409 -0.362,-0.523 -0.164,-0.114 -0.388,-0.172 -0.668,-0.172 -0.34,0 -0.645,0.091 -0.914,0.273 -0.271,0.183 -0.465,0.445 -0.582,0.789 -0.117,0.344 -0.176,0.914 -0.176,1.711 v 4.031 h -2.195 v -8.296 z" /><path
       inkscape:connector-curvature="0"
       id="path4270"
       d="m 286.432,16.751 2.188,0.367 c -0.281,0.802 -0.727,1.413 -1.332,1.832 -0.607,0.419 -1.366,0.629 -2.277,0.629 -1.443,0 -2.511,-0.471 -3.203,-1.414 -0.547,-0.755 -0.82,-1.708 -0.82,-2.859 0,-1.375 0.359,-2.452 1.078,-3.23 0.72,-0.778 1.627,-1.168 2.728,-1.168 1.233,0 2.208,0.408 2.922,1.223 0.713,0.815 1.056,2.064 1.022,3.746 h -5.5 c 0.017,0.651 0.192,1.158 0.531,1.52 0.338,0.362 0.76,0.543 1.267,0.543 0.344,0 0.633,-0.094 0.866,-0.281 0.233,-0.187 0.409,-0.491 0.53,-0.908 z m 0.125,-2.219 c -0.017,-0.635 -0.181,-1.118 -0.492,-1.449 -0.313,-0.331 -0.693,-0.496 -1.142,-0.496 -0.479,0 -0.875,0.175 -1.188,0.523 -0.313,0.349 -0.467,0.823 -0.461,1.422 z" /><path
       inkscape:connector-curvature="0"
       id="path4272"
       d="m 298.07,19.392 h -2.194 v -4.234 c 0,-0.896 -0.047,-1.475 -0.142,-1.738 -0.094,-0.263 -0.245,-0.467 -0.457,-0.613 -0.211,-0.146 -0.465,-0.219 -0.762,-0.219 -0.381,0 -0.722,0.104 -1.022,0.313 -0.304,0.208 -0.511,0.484 -0.621,0.828 -0.112,0.344 -0.168,0.979 -0.168,1.906 v 3.758 h -2.195 v -8.297 h 2.039 v 1.219 c 0.724,-0.938 1.636,-1.406 2.734,-1.406 0.483,0 0.927,0.087 1.327,0.262 0.4,0.175 0.705,0.397 0.91,0.668 0.205,0.271 0.35,0.578 0.431,0.922 0.079,0.344 0.12,0.836 0.12,1.477 z" /><path
       inkscape:connector-curvature="0"
       id="path4274"
       d="m 304.104,11.095 v 1.75 h -1.5 v 3.344 c 0,0.677 0.014,1.072 0.043,1.184 0.027,0.112 0.094,0.205 0.194,0.277 0.103,0.073 0.226,0.109 0.371,0.109 0.203,0 0.497,-0.07 0.884,-0.211 l 0.188,1.703 c -0.512,0.219 -1.09,0.328 -1.734,0.328 -0.396,0 -0.753,-0.066 -1.07,-0.199 -0.317,-0.133 -0.551,-0.305 -0.699,-0.516 -0.147,-0.211 -0.252,-0.496 -0.309,-0.855 -0.047,-0.255 -0.07,-0.771 -0.07,-1.547 v -3.617 h -1.008 v -1.75 h 1.008 V 9.446 l 2.203,-1.281 v 2.93 z" /></g><g
     transform="translate(0,-2.4899902)"
     id="g5085"><path
       inkscape:connector-curvature="0"
       id="path4342"
       d="m 372.646,113.123 v -9.516 h -3.398 v -1.938 h 9.102 v 1.938 h -3.391 v 9.516 z" /><path
       inkscape:connector-curvature="0"
       id="path4344"
       d="m 381.045,113.123 h -2.195 v -8.297 h 2.039 v 1.18 c 0.35,-0.557 0.663,-0.924 0.941,-1.102 0.278,-0.177 0.595,-0.266 0.949,-0.266 0.5,0 0.98,0.138 1.444,0.414 l -0.68,1.914 c -0.37,-0.239 -0.714,-0.359 -1.031,-0.359 -0.308,0 -0.566,0.085 -0.78,0.254 -0.215,0.169 -0.383,0.476 -0.504,0.918 -0.122,0.443 -0.185,1.37 -0.185,2.781 z" /><path
       inkscape:connector-curvature="0"
       id="path4346"
       d="m 386.811,107.357 -1.991,-0.359 c 0.224,-0.802 0.608,-1.396 1.155,-1.781 0.548,-0.385 1.359,-0.578 2.438,-0.578 0.979,0 1.708,0.116 2.188,0.348 0.48,0.232 0.816,0.526 1.013,0.883 0.194,0.357 0.293,1.012 0.293,1.965 l -0.023,2.563 c 0,0.729 0.035,1.267 0.105,1.613 0.069,0.347 0.202,0.718 0.395,1.113 h -2.172 c -0.058,-0.146 -0.128,-0.362 -0.211,-0.648 -0.036,-0.13 -0.063,-0.216 -0.078,-0.258 -0.375,0.365 -0.776,0.638 -1.203,0.82 -0.427,0.182 -0.883,0.273 -1.367,0.273 -0.854,0 -1.526,-0.231 -2.02,-0.695 -0.492,-0.463 -0.738,-1.049 -0.738,-1.758 0,-0.469 0.112,-0.887 0.336,-1.254 0.225,-0.367 0.538,-0.648 0.941,-0.844 0.403,-0.196 0.984,-0.366 1.746,-0.512 1.025,-0.192 1.736,-0.372 2.133,-0.539 v -0.219 c 0,-0.422 -0.104,-0.723 -0.313,-0.902 -0.209,-0.179 -0.602,-0.27 -1.18,-0.27 -0.391,0 -0.695,0.077 -0.914,0.23 -0.221,0.154 -0.398,0.424 -0.533,0.809 z m 2.937,1.781 c -0.281,0.094 -0.727,0.206 -1.336,0.336 -0.609,0.13 -1.008,0.258 -1.195,0.383 -0.286,0.203 -0.43,0.461 -0.43,0.773 0,0.308 0.114,0.573 0.344,0.797 0.229,0.224 0.521,0.336 0.875,0.336 0.396,0 0.773,-0.13 1.133,-0.391 0.267,-0.198 0.44,-0.44 0.523,-0.727 0.058,-0.188 0.086,-0.544 0.086,-1.07 z" /><path
       inkscape:connector-curvature="0"
       id="path4348"
       d="m 401.615,113.123 h -2.195 v -4.234 c 0,-0.896 -0.047,-1.475 -0.141,-1.738 -0.095,-0.263 -0.246,-0.467 -0.457,-0.613 -0.211,-0.146 -0.465,-0.219 -0.763,-0.219 -0.38,0 -0.722,0.104 -1.022,0.313 -0.302,0.208 -0.509,0.484 -0.621,0.828 -0.112,0.344 -0.168,0.979 -0.168,1.906 v 3.758 h -2.195 v -8.297 h 2.039 v 1.219 c 0.725,-0.938 1.636,-1.406 2.734,-1.406 0.483,0 0.927,0.087 1.328,0.262 0.4,0.175 0.704,0.397 0.91,0.668 0.205,0.271 0.349,0.578 0.43,0.922 0.081,0.344 0.121,0.836 0.121,1.477 z" /><path
       inkscape:connector-curvature="0"
       id="path4350"
       d="m 403.068,110.755 2.203,-0.336 c 0.094,0.427 0.283,0.751 0.569,0.973 0.286,0.222 0.688,0.332 1.203,0.332 0.567,0 0.995,-0.104 1.281,-0.313 0.191,-0.146 0.289,-0.341 0.289,-0.586 0,-0.167 -0.052,-0.305 -0.156,-0.414 -0.109,-0.104 -0.354,-0.2 -0.734,-0.289 -1.771,-0.391 -2.894,-0.747 -3.366,-1.07 -0.656,-0.448 -0.984,-1.07 -0.984,-1.867 0,-0.719 0.284,-1.323 0.852,-1.813 0.567,-0.489 1.448,-0.734 2.642,-0.734 1.136,0 1.979,0.185 2.53,0.555 0.553,0.37 0.934,0.917 1.142,1.641 l -2.07,0.383 c -0.089,-0.323 -0.257,-0.57 -0.504,-0.742 -0.247,-0.172 -0.601,-0.258 -1.059,-0.258 -0.578,0 -0.992,0.081 -1.242,0.242 -0.167,0.115 -0.25,0.263 -0.25,0.445 0,0.156 0.073,0.289 0.219,0.398 0.198,0.146 0.882,0.352 2.051,0.617 1.169,0.265 1.985,0.591 2.449,0.977 0.458,0.391 0.688,0.935 0.688,1.633 0,0.761 -0.317,1.414 -0.953,1.961 -0.637,0.547 -1.575,0.82 -2.82,0.82 -1.13,0 -2.023,-0.229 -2.684,-0.688 -0.662,-0.457 -1.093,-1.08 -1.296,-1.867 z" /><path
       inkscape:connector-curvature="0"
       id="path4352"
       d="m 412.576,104.826 h 2.022 v 1.133 c 0.725,-0.88 1.586,-1.32 2.586,-1.32 0.531,0 0.992,0.109 1.384,0.328 0.391,0.219 0.711,0.55 0.961,0.992 0.363,-0.442 0.758,-0.773 1.18,-0.992 0.422,-0.219 0.872,-0.328 1.352,-0.328 0.609,0 1.125,0.124 1.548,0.371 0.422,0.248 0.736,0.611 0.944,1.09 0.151,0.354 0.228,0.927 0.228,1.719 v 5.305 h -2.195 v -4.742 c 0,-0.823 -0.075,-1.354 -0.227,-1.594 -0.203,-0.313 -0.517,-0.469 -0.938,-0.469 -0.308,0 -0.597,0.094 -0.867,0.281 -0.27,0.187 -0.466,0.462 -0.586,0.824 -0.12,0.362 -0.18,0.934 -0.18,1.715 v 3.984 h -2.195 v -4.547 c 0,-0.807 -0.039,-1.328 -0.117,-1.563 -0.078,-0.235 -0.198,-0.409 -0.362,-0.523 -0.164,-0.114 -0.388,-0.172 -0.668,-0.172 -0.339,0 -0.645,0.091 -0.914,0.273 -0.271,0.183 -0.465,0.445 -0.582,0.789 -0.117,0.344 -0.177,0.914 -0.177,1.711 v 4.031 h -2.194 z" /><path
       inkscape:connector-curvature="0"
       id="path4354"
       d="m 432.428,113.123 v -1.242 c -0.302,0.443 -0.699,0.792 -1.19,1.047 -0.492,0.255 -1.013,0.383 -1.56,0.383 -0.558,0 -1.058,-0.123 -1.5,-0.367 -0.441,-0.244 -0.763,-0.588 -0.961,-1.031 -0.198,-0.442 -0.297,-1.055 -0.297,-1.836 v -5.25 h 2.195 v 3.813 c 0,1.167 0.04,1.882 0.121,2.145 0.081,0.263 0.228,0.472 0.44,0.625 0.214,0.154 0.484,0.23 0.813,0.23 0.375,0 0.711,-0.103 1.008,-0.309 0.297,-0.206 0.5,-0.461 0.609,-0.766 0.108,-0.305 0.164,-1.051 0.164,-2.238 v -3.5 h 2.194 v 8.297 z" /><path
       inkscape:connector-curvature="0"
       id="path4356"
       d="m 440.545,104.826 v 1.75 h -1.5 v 3.344 c 0,0.677 0.015,1.072 0.043,1.184 0.028,0.112 0.094,0.205 0.195,0.277 0.102,0.073 0.226,0.109 0.371,0.109 0.203,0 0.497,-0.07 0.883,-0.211 l 0.188,1.703 c -0.511,0.219 -1.089,0.328 -1.733,0.328 -0.396,0 -0.753,-0.066 -1.07,-0.199 -0.317,-0.133 -0.551,-0.305 -0.699,-0.516 -0.147,-0.211 -0.251,-0.496 -0.309,-0.855 -0.047,-0.255 -0.07,-0.771 -0.07,-1.547 v -3.617 h -1.008 v -1.75 h 1.008 v -1.648 l 2.203,-1.281 v 2.93 z" /><path
       inkscape:connector-curvature="0"
       id="path4358"
       d="m 443.709,107.357 -1.992,-0.359 c 0.225,-0.802 0.609,-1.396 1.156,-1.781 0.547,-0.385 1.359,-0.578 2.438,-0.578 0.979,0 1.708,0.116 2.188,0.348 0.479,0.232 0.816,0.526 1.012,0.883 0.196,0.357 0.293,1.012 0.293,1.965 l -0.022,2.563 c 0,0.729 0.035,1.267 0.104,1.613 0.07,0.347 0.202,0.718 0.396,1.113 h -2.172 c -0.059,-0.146 -0.128,-0.362 -0.211,-0.648 -0.036,-0.13 -0.063,-0.216 -0.078,-0.258 -0.375,0.365 -0.776,0.638 -1.203,0.82 -0.427,0.182 -0.883,0.273 -1.367,0.273 -0.854,0 -1.527,-0.231 -2.02,-0.695 -0.492,-0.463 -0.738,-1.049 -0.738,-1.758 0,-0.469 0.111,-0.887 0.336,-1.254 0.224,-0.367 0.538,-0.648 0.94,-0.844 0.403,-0.196 0.985,-0.366 1.746,-0.512 1.026,-0.192 1.737,-0.372 2.134,-0.539 v -0.219 c 0,-0.422 -0.104,-0.723 -0.313,-0.902 -0.209,-0.179 -0.602,-0.27 -1.18,-0.27 -0.392,0 -0.695,0.077 -0.914,0.23 -0.221,0.154 -0.397,0.424 -0.533,0.809 z m 2.937,1.781 c -0.281,0.094 -0.728,0.206 -1.337,0.336 -0.608,0.13 -1.008,0.258 -1.194,0.383 -0.286,0.203 -0.431,0.461 -0.431,0.773 0,0.308 0.114,0.573 0.345,0.797 0.229,0.224 0.521,0.336 0.875,0.336 0.396,0 0.772,-0.13 1.133,-0.391 0.266,-0.198 0.439,-0.44 0.522,-0.727 0.059,-0.188 0.087,-0.544 0.087,-1.07 z" /><path
       inkscape:connector-curvature="0"
       id="path4360"
       d="m 454.771,104.826 v 1.75 h -1.5 v 3.344 c 0,0.677 0.015,1.072 0.043,1.184 0.027,0.112 0.094,0.205 0.194,0.277 0.103,0.073 0.227,0.109 0.371,0.109 0.203,0 0.497,-0.07 0.883,-0.211 l 0.188,1.703 c -0.511,0.219 -1.089,0.328 -1.734,0.328 -0.396,0 -0.753,-0.066 -1.07,-0.199 -0.316,-0.133 -0.551,-0.305 -0.698,-0.516 -0.148,-0.211 -0.251,-0.496 -0.31,-0.855 -0.047,-0.255 -0.069,-0.771 -0.069,-1.547 v -3.617 h -1.009 v -1.75 h 1.009 v -1.648 l 2.202,-1.281 v 2.93 z" /><path
       inkscape:connector-curvature="0"
       id="path4362"
       d="m 456.295,103.701 v -2.031 h 2.195 v 2.031 z m 0,9.422 v -8.297 h 2.195 v 8.297 z" /><path
       inkscape:connector-curvature="0"
       id="path4364"
       d="m 460.232,108.857 c 0,-0.729 0.18,-1.435 0.539,-2.117 0.358,-0.682 0.867,-1.203 1.526,-1.563 0.659,-0.36 1.396,-0.539 2.207,-0.539 1.255,0 2.284,0.408 3.086,1.223 0.802,0.815 1.203,1.845 1.203,3.09 0,1.255 -0.405,2.296 -1.215,3.121 -0.811,0.826 -1.829,1.238 -3.06,1.238 -0.761,0 -1.484,-0.172 -2.176,-0.516 -0.69,-0.344 -1.215,-0.848 -1.574,-1.512 -0.357,-0.664 -0.536,-1.472 -0.536,-2.425 z m 2.25,0.117 c 0,0.823 0.194,1.453 0.586,1.891 0.391,0.438 0.872,0.656 1.444,0.656 0.573,0 1.055,-0.219 1.441,-0.656 0.387,-0.437 0.582,-1.073 0.582,-1.906 0,-0.813 -0.194,-1.438 -0.582,-1.875 -0.388,-0.437 -0.868,-0.656 -1.441,-0.656 -0.572,0 -1.055,0.219 -1.444,0.656 -0.39,0.437 -0.586,1.067 -0.586,1.89 z" /><path
       inkscape:connector-curvature="0"
       id="path4366"
       d="m 478.061,113.123 h -2.194 v -4.234 c 0,-0.896 -0.047,-1.475 -0.142,-1.738 -0.094,-0.263 -0.246,-0.467 -0.457,-0.613 -0.211,-0.146 -0.465,-0.219 -0.762,-0.219 -0.38,0 -0.722,0.104 -1.022,0.313 -0.303,0.208 -0.51,0.484 -0.621,0.828 -0.112,0.344 -0.168,0.979 -0.168,1.906 v 3.758 H 470.5 v -8.297 h 2.039 v 1.219 c 0.724,-0.938 1.636,-1.406 2.734,-1.406 0.483,0 0.927,0.087 1.327,0.262 0.401,0.175 0.704,0.397 0.91,0.668 0.206,0.271 0.35,0.578 0.431,0.922 0.081,0.344 0.12,0.836 0.12,1.477 z" /></g><g
     transform="translate(10,-10)"
     id="g5098"><path
       inkscape:connector-curvature="0"
       id="path4458"
       d="m 377.972,215.875 2.242,0.711 c -0.344,1.25 -0.916,2.18 -1.715,2.785 -0.801,0.607 -1.814,0.91 -3.043,0.91 -1.521,0 -2.771,-0.521 -3.75,-1.559 -0.98,-1.039 -1.469,-2.459 -1.469,-4.263 0,-1.905 0.491,-3.387 1.477,-4.44 0.985,-1.055 2.277,-1.582 3.883,-1.582 1.4,0 2.539,0.414 3.414,1.242 0.521,0.489 0.91,1.192 1.172,2.108 l -2.289,0.547 c -0.137,-0.594 -0.418,-1.063 -0.848,-1.405 -0.43,-0.344 -0.953,-0.517 -1.565,-0.517 -0.851,0 -1.539,0.305 -2.066,0.914 -0.529,0.608 -0.793,1.598 -0.793,2.961 0,1.448 0.26,2.479 0.781,3.094 0.52,0.615 1.196,0.923 2.03,0.923 0.613,0 1.144,-0.195 1.586,-0.587 0.441,-0.389 0.759,-1.002 0.953,-1.842 z" /><path
       inkscape:connector-curvature="0"
       id="path4460"
       d="m 381.675,215.82 c 0,-0.729 0.181,-1.435 0.539,-2.117 0.359,-0.682 0.867,-1.203 1.527,-1.563 0.658,-0.359 1.395,-0.539 2.207,-0.539 1.254,0 2.283,0.407 3.086,1.223 0.801,0.816 1.203,1.846 1.203,3.09 0,1.256 -0.406,2.297 -1.215,3.121 -0.812,0.826 -1.83,1.238 -3.06,1.238 -0.762,0 -1.486,-0.172 -2.176,-0.517 -0.691,-0.344 -1.215,-0.848 -1.574,-1.512 -0.359,-0.664 -0.537,-1.471 -0.537,-2.424 z m 2.25,0.118 c 0,0.824 0.195,1.453 0.586,1.892 0.392,0.438 0.871,0.655 1.445,0.655 0.572,0 1.053,-0.219 1.441,-0.655 0.387,-0.438 0.581,-1.072 0.581,-1.906 0,-0.813 -0.194,-1.438 -0.581,-1.875 -0.39,-0.438 -0.869,-0.655 -1.441,-0.655 -0.574,0 -1.055,0.219 -1.445,0.655 -0.39,0.435 -0.586,1.066 -0.586,1.889 z" /><path
       inkscape:connector-curvature="0"
       id="path4462"
       d="m 399.503,220.086 h -2.195 v -4.234 c 0,-0.895 -0.047,-1.475 -0.141,-1.737 -0.094,-0.262 -0.246,-0.468 -0.457,-0.613 -0.211,-0.145 -0.465,-0.219 -0.762,-0.219 -0.381,0 -0.724,0.104 -1.023,0.313 -0.303,0.209 -0.51,0.483 -0.621,0.827 -0.112,0.345 -0.168,0.979 -0.168,1.906 v 3.758 h -2.194 v -8.297 h 2.039 v 1.219 c 0.723,-0.938 1.635,-1.405 2.733,-1.405 0.484,0 0.926,0.088 1.328,0.262 0.4,0.176 0.703,0.398 0.91,0.668 0.205,0.271 0.348,0.578 0.43,0.922 0.08,0.344 0.121,0.836 0.121,1.477 z" /><path
       inkscape:connector-curvature="0"
       id="path4464"
       d="m 403.878,211.789 v 8.039 c 0,1.058 -0.07,1.804 -0.207,2.238 -0.139,0.436 -0.404,0.774 -0.797,1.02 -0.396,0.245 -0.896,0.367 -1.504,0.367 -0.219,0 -0.455,-0.02 -0.707,-0.059 -0.253,-0.039 -0.525,-0.099 -0.816,-0.177 l 0.384,-1.875 c 0.104,0.021 0.2,0.038 0.293,0.052 0.09,0.014 0.176,0.02 0.254,0.02 0.223,0 0.405,-0.048 0.551,-0.145 0.143,-0.097 0.238,-0.213 0.285,-0.349 0.047,-0.135 0.069,-0.541 0.069,-1.219 v -7.914 z m -2.195,-1.125 v -2.031 h 2.195 v 2.031 z" /><path
       inkscape:connector-curvature="0"
       id="path4466"
       d="m 411.636,220.086 v -1.242 c -0.303,0.443 -0.699,0.793 -1.19,1.047 -0.492,0.256 -1.013,0.383 -1.56,0.383 -0.559,0 -1.059,-0.121 -1.5,-0.366 -0.442,-0.244 -0.764,-0.589 -0.961,-1.031 -0.199,-0.44 -0.297,-1.056 -0.297,-1.836 v -5.25 h 2.195 v 3.813 c 0,1.168 0.039,1.883 0.121,2.145 0.08,0.264 0.227,0.473 0.44,0.625 0.213,0.154 0.484,0.23 0.813,0.23 0.375,0 0.711,-0.103 1.008,-0.31 0.297,-0.205 0.5,-0.461 0.609,-0.767 0.108,-0.305 0.163,-1.051 0.163,-2.237 v -3.5 h 2.195 v 8.297 z" /><path
       inkscape:connector-curvature="0"
       id="path4468"
       d="m 418.05,220.086 h -2.194 v -8.297 h 2.038 v 1.18 c 0.349,-0.557 0.662,-0.924 0.941,-1.102 0.277,-0.176 0.594,-0.266 0.949,-0.266 0.5,0 0.979,0.139 1.444,0.414 l -0.68,1.914 c -0.371,-0.238 -0.715,-0.359 -1.031,-0.359 -0.309,0 -0.567,0.086 -0.78,0.254 -0.215,0.17 -0.384,0.477 -0.504,0.918 -0.123,0.443 -0.185,1.371 -0.185,2.781 z" /><path
       inkscape:connector-curvature="0"
       id="path4470"
       d="m 423.815,214.32 -1.992,-0.359 c 0.223,-0.801 0.608,-1.395 1.155,-1.781 0.548,-0.385 1.359,-0.578 2.438,-0.578 0.979,0 1.707,0.117 2.188,0.349 0.479,0.231 0.815,0.526 1.012,0.883 0.194,0.356 0.293,1.013 0.293,1.965 l -0.023,2.563 c 0,0.729 0.035,1.268 0.105,1.613 0.069,0.348 0.201,0.719 0.395,1.112 h -2.172 c -0.059,-0.146 -0.129,-0.36 -0.211,-0.647 -0.037,-0.129 -0.063,-0.215 -0.078,-0.258 -0.375,0.364 -0.776,0.639 -1.203,0.819 -0.428,0.183 -0.883,0.272 -1.367,0.272 -0.854,0 -1.526,-0.229 -2.02,-0.694 -0.492,-0.463 -0.738,-1.049 -0.738,-1.758 0,-0.47 0.111,-0.888 0.336,-1.255 0.224,-0.366 0.537,-0.647 0.941,-0.844 0.402,-0.195 0.984,-0.365 1.746,-0.512 1.024,-0.191 1.736,-0.371 2.133,-0.539 v -0.219 c 0,-0.422 -0.104,-0.723 -0.313,-0.902 -0.209,-0.18 -0.603,-0.27 -1.181,-0.27 -0.391,0 -0.694,0.078 -0.914,0.23 -0.217,0.156 -0.395,0.426 -0.53,0.81 z m 2.938,1.782 c -0.281,0.094 -0.727,0.207 -1.336,0.336 -0.609,0.131 -1.008,0.258 -1.195,0.383 -0.287,0.203 -0.43,0.462 -0.43,0.773 0,0.309 0.113,0.574 0.344,0.797 0.229,0.226 0.521,0.336 0.875,0.336 0.396,0 0.773,-0.129 1.133,-0.391 0.267,-0.197 0.439,-0.439 0.523,-0.727 0.057,-0.188 0.086,-0.543 0.086,-1.07 z" /><path
       inkscape:connector-curvature="0"
       id="path4472"
       d="m 434.878,211.789 v 1.75 h -1.5 v 3.344 c 0,0.678 0.014,1.072 0.043,1.184 0.027,0.113 0.094,0.205 0.195,0.277 0.102,0.074 0.225,0.109 0.371,0.109 0.203,0 0.496,-0.07 0.883,-0.211 l 0.188,1.703 c -0.512,0.219 -1.09,0.328 -1.733,0.328 -0.396,0 -0.754,-0.066 -1.07,-0.199 -0.318,-0.133 -0.551,-0.305 -0.699,-0.516 -0.147,-0.211 -0.252,-0.496 -0.309,-0.855 -0.047,-0.254 -0.07,-0.77 -0.07,-1.547 v -3.617 h -1.008 v -1.75 h 1.008 v -1.648 l 2.203,-1.281 v 2.931 z" /><path
       inkscape:connector-curvature="0"
       id="path4474"
       d="m 436.401,210.664 v -2.031 h 2.194 v 2.031 z m 0,9.422 v -8.297 h 2.194 v 8.297 z" /><path
       inkscape:connector-curvature="0"
       id="path4476"
       d="m 440.339,215.82 c 0,-0.729 0.18,-1.435 0.539,-2.117 0.359,-0.682 0.867,-1.203 1.527,-1.563 0.657,-0.359 1.395,-0.539 2.207,-0.539 1.254,0 2.282,0.407 3.086,1.223 0.801,0.816 1.203,1.846 1.203,3.09 0,1.256 -0.406,2.297 -1.216,3.121 -0.811,0.826 -1.829,1.238 -3.059,1.238 -0.762,0 -1.486,-0.172 -2.176,-0.517 -0.691,-0.344 -1.215,-0.848 -1.574,-1.512 -0.359,-0.664 -0.537,-1.471 -0.537,-2.424 z m 2.25,0.118 c 0,0.824 0.195,1.453 0.586,1.892 0.392,0.438 0.871,0.655 1.445,0.655 0.572,0 1.053,-0.219 1.44,-0.655 0.388,-0.438 0.582,-1.072 0.582,-1.906 0,-0.813 -0.194,-1.438 -0.582,-1.875 -0.389,-0.438 -0.868,-0.655 -1.44,-0.655 -0.574,0 -1.055,0.219 -1.445,0.655 -0.39,0.435 -0.586,1.066 -0.586,1.889 z" /><path
       inkscape:connector-curvature="0"
       id="path4478"
       d="m 458.167,220.086 h -2.195 v -4.234 c 0,-0.895 -0.047,-1.475 -0.141,-1.737 -0.094,-0.262 -0.246,-0.468 -0.457,-0.613 -0.211,-0.145 -0.465,-0.219 -0.762,-0.219 -0.381,0 -0.724,0.104 -1.023,0.313 -0.303,0.209 -0.51,0.483 -0.621,0.827 -0.112,0.345 -0.168,0.979 -0.168,1.906 v 3.758 h -2.194 v -8.297 h 2.038 v 1.219 c 0.724,-0.938 1.636,-1.405 2.734,-1.405 0.484,0 0.926,0.088 1.328,0.262 0.4,0.176 0.703,0.398 0.91,0.668 0.205,0.271 0.348,0.578 0.43,0.922 0.08,0.344 0.121,0.836 0.121,1.477 z" /></g><g
     transform="translate(0,-10)"
     id="g5043"><path
       inkscape:connector-curvature="0"
       id="path4528"
       d="M 45.438,120.633 V 109.18 h 8.492 v 1.938 h -6.18 v 2.539 h 5.75 v 1.93 h -5.75 v 3.117 h 6.398 v 1.93 z" /><path
       inkscape:connector-curvature="0"
       id="path4530"
       d="m 55.931,112.336 h 2.023 v 1.133 c 0.724,-0.88 1.586,-1.32 2.586,-1.32 0.531,0 0.992,0.109 1.383,0.328 0.391,0.219 0.711,0.55 0.961,0.992 0.364,-0.442 0.758,-0.773 1.18,-0.992 0.422,-0.219 0.872,-0.328 1.352,-0.328 0.609,0 1.125,0.124 1.547,0.371 0.422,0.248 0.737,0.611 0.945,1.09 0.151,0.354 0.227,0.927 0.227,1.719 v 5.305 H 65.94 v -4.742 c 0,-0.823 -0.076,-1.354 -0.227,-1.594 -0.203,-0.313 -0.516,-0.469 -0.938,-0.469 -0.308,0 -0.597,0.094 -0.867,0.281 -0.271,0.188 -0.466,0.462 -0.586,0.824 -0.12,0.362 -0.18,0.934 -0.18,1.715 v 3.984 h -2.195 v -4.547 c 0,-0.807 -0.039,-1.328 -0.117,-1.563 -0.078,-0.235 -0.199,-0.409 -0.363,-0.523 -0.164,-0.114 -0.387,-0.172 -0.668,-0.172 -0.339,0 -0.644,0.091 -0.914,0.273 -0.271,0.183 -0.465,0.445 -0.582,0.789 -0.117,0.344 -0.176,0.914 -0.176,1.711 v 4.031 h -2.195 z" /><path
       inkscape:connector-curvature="0"
       id="path4532"
       d="m 70.321,111.211 v -2.031 h 2.195 v 2.031 z m 0,9.422 v -8.297 h 2.195 v 8.297 z" /><path
       inkscape:connector-curvature="0"
       id="path4534"
       d="m 73.993,118.266 2.203,-0.336 c 0.094,0.427 0.284,0.751 0.57,0.973 0.286,0.222 0.688,0.332 1.203,0.332 0.567,0 0.995,-0.104 1.281,-0.313 0.192,-0.146 0.289,-0.341 0.289,-0.586 0,-0.167 -0.052,-0.305 -0.156,-0.414 -0.109,-0.104 -0.354,-0.2 -0.734,-0.289 -1.771,-0.391 -2.894,-0.747 -3.367,-1.07 -0.656,-0.448 -0.984,-1.07 -0.984,-1.867 0,-0.719 0.284,-1.323 0.852,-1.813 0.567,-0.489 1.448,-0.734 2.641,-0.734 1.135,0 1.979,0.185 2.531,0.555 0.552,0.37 0.932,0.917 1.141,1.641 l -2.07,0.383 c -0.089,-0.323 -0.257,-0.57 -0.504,-0.742 -0.248,-0.172 -0.601,-0.258 -1.059,-0.258 -0.578,0 -0.992,0.081 -1.242,0.242 -0.167,0.115 -0.25,0.263 -0.25,0.445 0,0.156 0.073,0.289 0.219,0.398 0.198,0.146 0.881,0.352 2.051,0.617 1.169,0.266 1.985,0.591 2.449,0.977 0.458,0.391 0.688,0.935 0.688,1.633 0,0.761 -0.318,1.414 -0.953,1.961 -0.636,0.547 -1.576,0.82 -2.82,0.82 -1.13,0 -2.025,-0.229 -2.684,-0.688 -0.661,-0.458 -1.092,-1.08 -1.295,-1.867 z" /><path
       inkscape:connector-curvature="0"
       id="path4536"
       d="m 82.892,118.266 2.203,-0.336 c 0.094,0.427 0.284,0.751 0.57,0.973 0.286,0.222 0.688,0.332 1.203,0.332 0.567,0 0.995,-0.104 1.281,-0.313 0.192,-0.146 0.289,-0.341 0.289,-0.586 0,-0.167 -0.052,-0.305 -0.156,-0.414 -0.109,-0.104 -0.354,-0.2 -0.734,-0.289 -1.771,-0.391 -2.894,-0.747 -3.367,-1.07 -0.656,-0.448 -0.984,-1.07 -0.984,-1.867 0,-0.719 0.284,-1.323 0.852,-1.813 0.567,-0.489 1.448,-0.734 2.641,-0.734 1.135,0 1.979,0.185 2.531,0.555 0.552,0.37 0.932,0.917 1.141,1.641 l -2.07,0.383 c -0.089,-0.323 -0.257,-0.57 -0.504,-0.742 -0.248,-0.172 -0.601,-0.258 -1.059,-0.258 -0.578,0 -0.992,0.081 -1.242,0.242 -0.167,0.115 -0.25,0.263 -0.25,0.445 0,0.156 0.073,0.289 0.219,0.398 0.198,0.146 0.881,0.352 2.051,0.617 1.169,0.266 1.985,0.591 2.449,0.977 0.458,0.391 0.688,0.935 0.688,1.633 0,0.761 -0.318,1.414 -0.953,1.961 -0.636,0.547 -1.576,0.82 -2.82,0.82 -1.13,0 -2.025,-0.229 -2.684,-0.688 -0.662,-0.458 -1.092,-1.08 -1.295,-1.867 z" /><path
       inkscape:connector-curvature="0"
       id="path4538"
       d="m 92.563,111.211 v -2.031 h 2.195 v 2.031 z m 0,9.422 v -8.297 h 2.195 v 8.297 z" /><path
       inkscape:connector-curvature="0"
       id="path4540"
       d="m 96.501,116.368 c 0,-0.729 0.18,-1.435 0.539,-2.117 0.359,-0.682 0.868,-1.203 1.527,-1.563 0.659,-0.359 1.395,-0.539 2.207,-0.539 1.255,0 2.284,0.408 3.086,1.223 0.802,0.815 1.203,1.845 1.203,3.09 0,1.255 -0.405,2.296 -1.215,3.121 -0.81,0.826 -1.83,1.238 -3.059,1.238 -0.761,0 -1.486,-0.172 -2.176,-0.516 -0.69,-0.344 -1.215,-0.848 -1.574,-1.512 -0.359,-0.664 -0.538,-1.472 -0.538,-2.425 z m 2.25,0.117 c 0,0.823 0.195,1.453 0.586,1.891 0.391,0.438 0.872,0.656 1.445,0.656 0.573,0 1.053,-0.219 1.441,-0.656 0.388,-0.438 0.582,-1.073 0.582,-1.906 0,-0.813 -0.194,-1.438 -0.582,-1.875 -0.388,-0.438 -0.869,-0.656 -1.441,-0.656 -0.573,0 -1.055,0.219 -1.445,0.656 -0.39,0.437 -0.586,1.067 -0.586,1.89 z" /><path
       inkscape:connector-curvature="0"
       id="path4542"
       d="m 114.329,120.633 h -2.195 v -4.234 c 0,-0.896 -0.047,-1.475 -0.141,-1.738 -0.094,-0.263 -0.246,-0.467 -0.457,-0.613 -0.211,-0.146 -0.465,-0.219 -0.762,-0.219 -0.38,0 -0.722,0.104 -1.023,0.313 -0.302,0.208 -0.509,0.484 -0.621,0.828 -0.112,0.344 -0.168,0.979 -0.168,1.906 v 3.758 h -2.195 v -8.297 h 2.039 v 1.219 c 0.724,-0.938 1.635,-1.406 2.734,-1.406 0.484,0 0.927,0.087 1.328,0.262 0.401,0.175 0.704,0.397 0.91,0.668 0.206,0.271 0.349,0.578 0.43,0.922 0.081,0.344 0.121,0.836 0.121,1.477 z" /></g><g
     transform="translate(0,-10)"
     id="g5057"><path
       inkscape:connector-curvature="0"
       id="path4594"
       d="m 30.983,220.086 v -11.453 h 3.461 l 2.078,7.813 2.055,-7.813 h 3.469 v 11.453 h -2.148 v -9.016 l -2.273,9.016 h -2.227 l -2.266,-9.016 v 9.016 z" /><path
       inkscape:connector-curvature="0"
       id="path4596"
       d="m 45.968,214.32 -1.992,-0.359 c 0.224,-0.801 0.609,-1.395 1.156,-1.781 0.547,-0.385 1.359,-0.578 2.438,-0.578 0.979,0 1.708,0.117 2.188,0.349 0.479,0.231 0.816,0.526 1.012,0.883 0.195,0.356 0.293,1.013 0.293,1.965 l -0.023,2.563 c 0,0.729 0.035,1.268 0.105,1.613 0.07,0.348 0.202,0.719 0.395,1.112 h -2.172 c -0.058,-0.146 -0.128,-0.36 -0.211,-0.647 -0.037,-0.129 -0.063,-0.215 -0.078,-0.258 -0.375,0.364 -0.776,0.639 -1.203,0.819 -0.427,0.183 -0.883,0.272 -1.367,0.272 -0.854,0 -1.527,-0.229 -2.02,-0.694 -0.492,-0.463 -0.738,-1.049 -0.738,-1.758 0,-0.47 0.112,-0.888 0.336,-1.255 0.224,-0.366 0.538,-0.647 0.941,-0.844 0.403,-0.195 0.985,-0.365 1.746,-0.512 1.026,-0.191 1.737,-0.371 2.133,-0.539 v -0.219 c 0,-0.422 -0.104,-0.723 -0.313,-0.902 -0.208,-0.18 -0.602,-0.27 -1.18,-0.27 -0.391,0 -0.695,0.078 -0.914,0.23 -0.22,0.156 -0.397,0.426 -0.532,0.81 z m 2.937,1.782 c -0.281,0.094 -0.727,0.207 -1.336,0.336 -0.609,0.131 -1.008,0.258 -1.195,0.383 -0.287,0.203 -0.43,0.462 -0.43,0.773 0,0.309 0.114,0.574 0.344,0.797 0.229,0.226 0.521,0.336 0.875,0.336 0.396,0 0.773,-0.129 1.133,-0.391 0.266,-0.197 0.44,-0.439 0.523,-0.727 0.057,-0.188 0.086,-0.543 0.086,-1.07 z" /><path
       inkscape:connector-curvature="0"
       id="path4598"
       d="m 60.772,220.086 h -2.195 v -4.234 c 0,-0.895 -0.047,-1.475 -0.141,-1.737 -0.094,-0.263 -0.246,-0.468 -0.457,-0.613 -0.211,-0.145 -0.465,-0.219 -0.762,-0.219 -0.38,0 -0.722,0.104 -1.023,0.313 -0.302,0.209 -0.509,0.483 -0.621,0.827 -0.112,0.345 -0.168,0.979 -0.168,1.906 v 3.758 H 53.21 v -8.297 h 2.039 v 1.219 c 0.724,-0.938 1.635,-1.405 2.734,-1.405 0.484,0 0.927,0.088 1.328,0.262 0.401,0.176 0.704,0.398 0.91,0.668 0.206,0.271 0.349,0.578 0.43,0.922 0.081,0.344 0.121,0.836 0.121,1.477 z" /><path
       inkscape:connector-curvature="0"
       id="path4600"
       d="m 62.999,210.664 v -2.031 h 2.195 v 2.031 z m 0,9.422 v -8.297 h 2.195 v 8.297 z" /><path
       inkscape:connector-curvature="0"
       id="path4602"
       d="m 67.382,211.789 h 2.047 v 1.219 c 0.266,-0.416 0.625,-0.754 1.078,-1.016 0.453,-0.26 0.956,-0.391 1.508,-0.391 0.963,0 1.781,0.379 2.453,1.133 0.672,0.756 1.008,1.809 1.008,3.156 0,1.387 -0.339,2.463 -1.016,3.229 -0.677,0.771 -1.498,1.151 -2.461,1.151 -0.458,0 -0.874,-0.09 -1.246,-0.272 -0.373,-0.183 -0.765,-0.494 -1.176,-0.938 v 4.181 h -2.195 z m 2.172,4.008 c 0,0.934 0.185,1.621 0.555,2.066 0.37,0.445 0.82,0.668 1.352,0.668 0.51,0 0.935,-0.203 1.273,-0.613 0.338,-0.408 0.508,-1.078 0.508,-2.012 0,-0.869 -0.175,-1.516 -0.523,-1.938 -0.349,-0.422 -0.781,-0.633 -1.297,-0.633 -0.537,0 -0.982,0.207 -1.336,0.621 -0.356,0.415 -0.532,1.028 -0.532,1.841 z" /><path
       inkscape:connector-curvature="0"
       id="path4604"
       d="m 82.679,220.086 v -1.242 c -0.302,0.443 -0.699,0.793 -1.191,1.047 -0.492,0.256 -1.012,0.383 -1.559,0.383 -0.558,0 -1.058,-0.121 -1.5,-0.366 -0.443,-0.244 -0.763,-0.589 -0.961,-1.031 -0.198,-0.44 -0.297,-1.056 -0.297,-1.836 v -5.25 h 2.195 v 3.813 c 0,1.168 0.04,1.883 0.121,2.145 0.081,0.264 0.228,0.473 0.441,0.625 0.213,0.154 0.484,0.23 0.813,0.23 0.375,0 0.711,-0.103 1.008,-0.31 0.297,-0.205 0.5,-0.461 0.609,-0.767 0.109,-0.305 0.164,-1.051 0.164,-2.237 v -3.5 h 2.195 v 8.297 z" /><path
       inkscape:connector-curvature="0"
       id="path4606"
       d="m 86.991,220.086 v -11.453 h 2.195 v 11.453 z" /><path
       inkscape:connector-curvature="0"
       id="path4608"
       d="m 93.077,214.32 -1.992,-0.359 c 0.224,-0.801 0.609,-1.395 1.156,-1.781 0.547,-0.385 1.359,-0.578 2.438,-0.578 0.979,0 1.708,0.117 2.188,0.349 0.479,0.231 0.816,0.526 1.012,0.883 0.195,0.356 0.293,1.013 0.293,1.965 l -0.023,2.563 c 0,0.729 0.035,1.268 0.105,1.613 0.07,0.348 0.202,0.719 0.395,1.112 h -2.172 c -0.058,-0.146 -0.128,-0.36 -0.211,-0.647 -0.037,-0.129 -0.063,-0.215 -0.078,-0.258 -0.375,0.364 -0.776,0.639 -1.203,0.819 -0.427,0.183 -0.883,0.272 -1.367,0.272 -0.854,0 -1.527,-0.229 -2.02,-0.694 -0.492,-0.463 -0.738,-1.049 -0.738,-1.758 0,-0.47 0.112,-0.888 0.336,-1.255 0.224,-0.366 0.538,-0.647 0.941,-0.844 0.403,-0.195 0.985,-0.365 1.746,-0.512 1.026,-0.191 1.737,-0.371 2.133,-0.539 v -0.219 c 0,-0.422 -0.104,-0.723 -0.313,-0.902 -0.208,-0.18 -0.602,-0.27 -1.18,-0.27 -0.391,0 -0.695,0.078 -0.914,0.23 -0.219,0.156 -0.397,0.426 -0.532,0.81 z m 2.938,1.782 c -0.281,0.094 -0.727,0.207 -1.336,0.336 -0.609,0.131 -1.008,0.258 -1.195,0.383 -0.287,0.203 -0.43,0.462 -0.43,0.773 0,0.309 0.114,0.574 0.344,0.797 0.229,0.226 0.521,0.336 0.875,0.336 0.396,0 0.773,-0.129 1.133,-0.391 0.266,-0.197 0.44,-0.439 0.523,-0.727 0.057,-0.188 0.086,-0.543 0.086,-1.07 z" /><path
       inkscape:connector-curvature="0"
       id="path4610"
       d="m 104.14,211.789 v 1.75 h -1.5 v 3.344 c 0,0.678 0.014,1.072 0.043,1.184 0.028,0.113 0.094,0.205 0.195,0.277 0.102,0.074 0.225,0.109 0.371,0.109 0.203,0 0.497,-0.07 0.883,-0.211 l 0.188,1.703 c -0.511,0.219 -1.089,0.328 -1.734,0.328 -0.396,0 -0.753,-0.066 -1.07,-0.199 -0.318,-0.133 -0.551,-0.305 -0.699,-0.516 -0.148,-0.211 -0.251,-0.496 -0.309,-0.855 -0.047,-0.254 -0.07,-0.77 -0.07,-1.547 v -3.617 H 99.43 v -1.75 h 1.008 v -1.648 l 2.203,-1.281 v 2.931 z" /><path
       inkscape:connector-curvature="0"
       id="path4612"
       d="m 105.663,210.664 v -2.031 h 2.195 v 2.031 z m 0,9.422 v -8.297 h 2.195 v 8.297 z" /><path
       inkscape:connector-curvature="0"
       id="path4614"
       d="m 109.601,215.82 c 0,-0.729 0.18,-1.435 0.539,-2.117 0.359,-0.682 0.868,-1.203 1.527,-1.563 0.659,-0.36 1.395,-0.539 2.207,-0.539 1.255,0 2.284,0.407 3.086,1.223 0.802,0.816 1.203,1.846 1.203,3.09 0,1.256 -0.405,2.297 -1.215,3.121 -0.81,0.826 -1.83,1.238 -3.059,1.238 -0.761,0 -1.486,-0.172 -2.176,-0.517 -0.69,-0.344 -1.215,-0.848 -1.574,-1.512 -0.359,-0.663 -0.538,-1.471 -0.538,-2.424 z m 2.25,0.118 c 0,0.824 0.195,1.453 0.586,1.892 0.391,0.439 0.872,0.655 1.445,0.655 0.573,0 1.053,-0.219 1.441,-0.655 0.388,-0.438 0.582,-1.072 0.582,-1.906 0,-0.813 -0.194,-1.438 -0.582,-1.875 -0.388,-0.438 -0.869,-0.655 -1.441,-0.655 -0.573,0 -1.055,0.219 -1.445,0.655 -0.39,0.436 -0.586,1.066 -0.586,1.889 z" /><path
       inkscape:connector-curvature="0"
       id="path4616"
       d="m 127.429,220.086 h -2.195 v -4.234 c 0,-0.895 -0.047,-1.475 -0.141,-1.737 -0.094,-0.263 -0.246,-0.468 -0.457,-0.613 -0.211,-0.146 -0.465,-0.219 -0.762,-0.219 -0.38,0 -0.722,0.104 -1.023,0.313 -0.302,0.209 -0.509,0.483 -0.621,0.827 -0.112,0.345 -0.168,0.979 -0.168,1.906 v 3.758 h -2.195 v -8.297 h 2.039 v 1.219 c 0.724,-0.938 1.635,-1.405 2.734,-1.405 0.484,0 0.927,0.088 1.328,0.262 0.401,0.176 0.704,0.398 0.91,0.668 0.206,0.271 0.349,0.578 0.43,0.922 0.081,0.344 0.121,0.836 0.121,1.477 z" /></g><g
     transform="translate(0,-10)"
     id="g5114"><path
       inkscape:connector-curvature="0"
       id="path4692"
       d="m 199.23,317.205 2.25,-0.219 c 0.135,0.755 0.41,1.31 0.824,1.664 0.414,0.354 0.973,0.531 1.676,0.531 0.745,0 1.306,-0.158 1.684,-0.474 0.377,-0.315 0.566,-0.685 0.566,-1.104 0,-0.271 -0.08,-0.502 -0.238,-0.691 -0.159,-0.189 -0.437,-0.355 -0.832,-0.496 -0.271,-0.094 -0.888,-0.262 -1.852,-0.5 -1.24,-0.309 -2.109,-0.686 -2.609,-1.133 -0.703,-0.631 -1.055,-1.398 -1.055,-2.305 0,-0.584 0.165,-1.129 0.496,-1.638 0.331,-0.508 0.807,-0.896 1.43,-1.159 0.622,-0.267 1.374,-0.398 2.254,-0.398 1.438,0 2.52,0.314 3.246,0.945 0.727,0.629 1.108,1.471 1.145,2.522 l -2.313,0.103 c -0.099,-0.59 -0.312,-1.013 -0.637,-1.271 -0.326,-0.258 -0.814,-0.388 -1.465,-0.388 -0.672,0 -1.198,0.139 -1.578,0.414 -0.245,0.178 -0.367,0.414 -0.367,0.711 0,0.271 0.114,0.503 0.344,0.695 0.292,0.244 1,0.5 2.125,0.767 1.125,0.266 1.957,0.54 2.496,0.823 0.539,0.283 0.961,0.672 1.266,1.164 0.305,0.492 0.457,1.101 0.457,1.824 0,0.656 -0.183,1.271 -0.547,1.844 -0.365,0.572 -0.88,0.998 -1.547,1.277 -0.667,0.277 -1.498,0.418 -2.492,0.418 -1.448,0 -2.56,-0.335 -3.336,-1.004 -0.776,-0.666 -1.24,-1.641 -1.391,-2.922 z" /><path
       inkscape:connector-curvature="0"
       id="path4694"
       d="m 210.41,312.635 h 2.047 v 1.219 c 0.266,-0.416 0.625,-0.756 1.078,-1.016 0.453,-0.261 0.956,-0.391 1.508,-0.391 0.963,0 1.781,0.377 2.453,1.133 0.672,0.755 1.008,1.807 1.008,3.156 0,1.385 -0.339,2.462 -1.016,3.229 -0.677,0.769 -1.498,1.152 -2.461,1.152 -0.458,0 -0.874,-0.093 -1.246,-0.272 -0.373,-0.184 -0.765,-0.496 -1.176,-0.938 v 4.18 h -2.195 z m 2.172,4.008 c 0,0.933 0.185,1.621 0.555,2.066 0.37,0.445 0.82,0.668 1.352,0.668 0.51,0 0.935,-0.205 1.273,-0.613 0.338,-0.408 0.508,-1.08 0.508,-2.012 0,-0.87 -0.175,-1.516 -0.523,-1.938 -0.349,-0.422 -0.781,-0.633 -1.297,-0.633 -0.537,0 -0.982,0.207 -1.336,0.621 -0.355,0.415 -0.532,1.028 -0.532,1.841 z" /><path
       inkscape:connector-curvature="0"
       id="path4696"
       d="m 225.051,318.291 2.188,0.367 c -0.281,0.802 -0.726,1.412 -1.332,1.832 -0.607,0.419 -1.366,0.629 -2.277,0.629 -1.443,0 -2.511,-0.473 -3.203,-1.414 -0.547,-0.756 -0.82,-1.709 -0.82,-2.859 0,-1.375 0.359,-2.451 1.078,-3.229 0.719,-0.779 1.627,-1.169 2.727,-1.169 1.234,0 2.208,0.408 2.922,1.224 0.713,0.813 1.055,2.063 1.023,3.746 h -5.5 c 0.016,0.649 0.192,1.157 0.531,1.521 0.338,0.36 0.76,0.543 1.266,0.543 0.344,0 0.633,-0.095 0.867,-0.281 0.234,-0.189 0.41,-0.494 0.53,-0.91 z m 0.125,-2.219 c -0.016,-0.637 -0.18,-1.119 -0.492,-1.449 -0.313,-0.331 -0.693,-0.496 -1.141,-0.496 -0.479,0 -0.875,0.174 -1.188,0.523 -0.313,0.349 -0.466,0.822 -0.461,1.422 z" /><path
       inkscape:connector-curvature="0"
       id="path4698"
       d="m 236.379,315.088 -2.164,0.391 c -0.073,-0.433 -0.238,-0.758 -0.496,-0.977 -0.258,-0.219 -0.593,-0.328 -1.004,-0.328 -0.547,0 -0.983,0.188 -1.309,0.566 -0.326,0.377 -0.488,1.009 -0.488,1.895 0,0.984 0.165,1.68 0.496,2.086 0.331,0.406 0.774,0.609 1.332,0.609 0.417,0 0.758,-0.119 1.023,-0.355 0.266,-0.236 0.453,-0.645 0.563,-1.223 l 2.156,0.367 c -0.224,0.988 -0.654,1.736 -1.289,2.242 -0.636,0.505 -1.487,0.758 -2.555,0.758 -1.214,0 -2.181,-0.383 -2.902,-1.148 -0.722,-0.766 -1.082,-1.826 -1.082,-3.18 0,-1.37 0.362,-2.438 1.086,-3.199 0.724,-0.764 1.703,-1.145 2.938,-1.145 1.01,0 1.813,0.217 2.41,0.652 0.596,0.435 1.024,1.098 1.285,1.989 z" /><path
       inkscape:connector-curvature="0"
       id="path4700"
       d="m 238.043,311.51 v -2.031 h 2.195 v 2.031 z m 0,9.422 v -8.297 h 2.195 v 8.297 z" /><path
       inkscape:connector-curvature="0"
       id="path4702"
       d="m 244.129,315.166 -1.992,-0.359 c 0.224,-0.803 0.609,-1.396 1.156,-1.781 0.547,-0.385 1.359,-0.578 2.438,-0.578 0.979,0 1.708,0.115 2.188,0.349 0.479,0.231 0.816,0.524 1.012,0.883 0.195,0.356 0.293,1.013 0.293,1.966 l -0.023,2.563 c 0,0.729 0.035,1.268 0.105,1.613 0.07,0.346 0.202,0.717 0.395,1.113 h -2.172 c -0.058,-0.146 -0.128,-0.363 -0.211,-0.648 -0.037,-0.131 -0.063,-0.217 -0.078,-0.258 -0.375,0.363 -0.776,0.638 -1.203,0.82 -0.427,0.182 -0.883,0.272 -1.367,0.272 -0.854,0 -1.527,-0.231 -2.02,-0.695 -0.492,-0.464 -0.738,-1.05 -0.738,-1.758 0,-0.47 0.112,-0.888 0.336,-1.254 0.224,-0.367 0.538,-0.647 0.941,-0.845 0.403,-0.194 0.985,-0.365 1.746,-0.512 1.026,-0.193 1.737,-0.373 2.133,-0.539 v -0.219 c 0,-0.422 -0.104,-0.723 -0.313,-0.902 -0.208,-0.18 -0.602,-0.27 -1.18,-0.27 -0.391,0 -0.695,0.076 -0.914,0.23 -0.22,0.154 -0.397,0.422 -0.532,0.809 z m 2.937,1.781 c -0.281,0.094 -0.727,0.205 -1.336,0.336 -0.609,0.13 -1.008,0.258 -1.195,0.383 -0.287,0.203 -0.43,0.461 -0.43,0.773 0,0.307 0.114,0.571 0.344,0.797 0.229,0.224 0.521,0.336 0.875,0.336 0.396,0 0.773,-0.131 1.133,-0.391 0.266,-0.199 0.44,-0.44 0.523,-0.728 0.057,-0.188 0.086,-0.545 0.086,-1.07 z" /><path
       inkscape:connector-curvature="0"
       id="path4704"
       d="m 251.387,320.932 v -11.453 h 2.195 v 11.453 z" /><path
       inkscape:connector-curvature="0"
       id="path4706"
       d="m 255.832,311.51 v -2.031 h 2.195 v 2.031 z m 0,9.422 v -8.297 h 2.195 v 8.297 z" /><path
       inkscape:connector-curvature="0"
       id="path4708"
       d="m 259.395,320.932 v -1.711 l 3.109,-3.57 c 0.51,-0.584 0.889,-0.998 1.133,-1.241 -0.256,0.016 -0.592,0.024 -1.008,0.03 l -2.93,0.017 v -1.82 h 6.859 v 1.556 l -3.172,3.656 -1.117,1.211 c 0.608,-0.037 0.985,-0.056 1.133,-0.056 h 3.397 v 1.931 h -7.405 v -0.003 z" /><path
       inkscape:connector-curvature="0"
       id="path4710"
       d="m 269.918,315.166 -1.992,-0.359 c 0.225,-0.803 0.609,-1.396 1.156,-1.781 0.547,-0.385 1.359,-0.578 2.438,-0.578 0.979,0 1.709,0.115 2.188,0.349 0.479,0.231 0.815,0.524 1.012,0.883 0.195,0.356 0.294,1.013 0.294,1.966 l -0.023,2.563 c 0,0.729 0.035,1.268 0.104,1.613 0.07,0.346 0.201,0.717 0.396,1.113 h -2.172 c -0.059,-0.146 -0.129,-0.363 -0.211,-0.648 -0.037,-0.131 -0.063,-0.217 -0.078,-0.258 -0.375,0.363 -0.776,0.638 -1.203,0.82 -0.428,0.182 -0.883,0.272 -1.367,0.272 -0.854,0 -1.527,-0.231 -2.02,-0.695 -0.493,-0.464 -0.738,-1.05 -0.738,-1.758 0,-0.47 0.111,-0.888 0.336,-1.254 0.224,-0.367 0.537,-0.647 0.941,-0.845 0.402,-0.194 0.984,-0.365 1.746,-0.512 1.024,-0.193 1.735,-0.373 2.133,-0.539 v -0.219 c 0,-0.422 -0.104,-0.723 -0.313,-0.902 -0.209,-0.179 -0.603,-0.27 -1.181,-0.27 -0.391,0 -0.694,0.076 -0.913,0.23 -0.221,0.154 -0.398,0.422 -0.533,0.809 z m 2.937,1.781 c -0.281,0.094 -0.728,0.205 -1.336,0.336 -0.609,0.13 -1.008,0.258 -1.195,0.383 -0.287,0.203 -0.43,0.461 -0.43,0.773 0,0.307 0.113,0.571 0.344,0.797 0.229,0.224 0.521,0.336 0.875,0.336 0.396,0 0.773,-0.131 1.133,-0.391 0.266,-0.199 0.439,-0.44 0.523,-0.728 0.057,-0.188 0.086,-0.545 0.086,-1.07 z" /><path
       inkscape:connector-curvature="0"
       id="path4712"
       d="m 280.98,312.635 v 1.75 h -1.5 v 3.344 c 0,0.678 0.014,1.071 0.043,1.185 0.027,0.11 0.094,0.204 0.194,0.276 0.103,0.072 0.226,0.109 0.371,0.109 0.203,0 0.497,-0.07 0.884,-0.211 l 0.188,1.703 c -0.512,0.219 -1.09,0.328 -1.734,0.328 -0.396,0 -0.753,-0.066 -1.07,-0.199 -0.317,-0.133 -0.551,-0.305 -0.698,-0.516 -0.148,-0.211 -0.253,-0.496 -0.31,-0.855 -0.047,-0.256 -0.07,-0.771 -0.07,-1.547 v -3.617 h -1.008 v -1.75 h 1.008 v -1.648 l 2.203,-1.28 v 2.93 z" /><path
       inkscape:connector-curvature="0"
       id="path4714"
       d="m 282.504,311.51 v -2.031 h 2.195 v 2.031 z m 0,9.422 v -8.297 h 2.195 v 8.297 z" /><path
       inkscape:connector-curvature="0"
       id="path4716"
       d="m 286.441,316.666 c 0,-0.729 0.18,-1.436 0.539,-2.117 0.358,-0.683 0.867,-1.203 1.526,-1.563 0.658,-0.359 1.396,-0.539 2.207,-0.539 1.255,0 2.283,0.406 3.086,1.223 0.802,0.814 1.203,1.846 1.203,3.09 0,1.256 -0.405,2.295 -1.215,3.121 -0.812,0.825 -1.83,1.238 -3.06,1.238 -0.76,0 -1.485,-0.172 -2.176,-0.516 -0.689,-0.345 -1.215,-0.849 -1.574,-1.513 -0.357,-0.663 -0.536,-1.471 -0.536,-2.424 z m 2.25,0.117 c 0,0.822 0.195,1.453 0.586,1.891 0.391,0.438 0.871,0.656 1.445,0.656 0.571,0 1.053,-0.219 1.44,-0.656 0.387,-0.437 0.582,-1.072 0.582,-1.906 0,-0.813 -0.194,-1.438 -0.582,-1.875 -0.39,-0.438 -0.869,-0.656 -1.44,-0.656 -0.574,0 -1.056,0.22 -1.445,0.656 -0.39,0.437 -0.586,1.067 -0.586,1.89 z" /><path
       inkscape:connector-curvature="0"
       id="path4718"
       d="m 304.27,320.932 h -2.194 v -4.233 c 0,-0.896 -0.048,-1.476 -0.142,-1.738 -0.094,-0.265 -0.246,-0.468 -0.457,-0.612 -0.211,-0.146 -0.465,-0.22 -0.762,-0.22 -0.381,0 -0.722,0.104 -1.023,0.313 -0.303,0.207 -0.51,0.483 -0.621,0.828 -0.111,0.344 -0.168,0.979 -0.168,1.905 v 3.759 h -2.194 v -8.298 h 2.039 v 1.22 c 0.724,-0.938 1.635,-1.406 2.733,-1.406 0.484,0 0.928,0.087 1.328,0.262 0.4,0.174 0.705,0.396 0.91,0.668 0.205,0.272 0.35,0.578 0.43,0.922 0.08,0.344 0.121,0.836 0.121,1.477 z" /></g><path
     id="polygon4746"
     d="m 252,80.235 86.399,49.882 v 99.766 L 252,279.766 165.6,229.883 v -99.766 z"
     style="fill:none;stroke:#000000;stroke-width:6;stroke-miterlimit:10"
     transform="translate(0,-10)" /><path
     id="circle4748"
     d="M 274.32,70.235001 A 22.32,22.32 0 0 1 252,92.555 22.32,22.32 0 0 1 229.68,70.235001 a 22.32,22.32 0 0 1 22.32,-22.32 22.32,22.32 0 0 1 22.32,22.32 z"
     style="fill:#f2f2f2;stroke:#000000;stroke-width:6;stroke-miterlimit:10" /><g
     transform="translate(0,-10)"
     id="g4752">
	<path
   inkscape:connector-curvature="0"
   id="path4750"
   d="m 246.527,80.475 0.456,-0.024 1.177,0.12 c -0.024,0.192 -0.024,0.456 -0.048,0.672 -0.288,6.193 -0.576,8.497 -1.272,9.313 -0.672,0.768 -1.416,0.888 -2.832,0.888 -0.553,0 -1.2,-0.024 -1.849,-0.048 -0.048,-0.624 -0.288,-1.488 -0.647,-2.064 1.128,0.072 2.231,0.096 2.664,0.096 0.408,0 0.647,-0.048 0.864,-0.288 0.432,-0.456 0.695,-2.232 0.912,-6.673 h -3.049 l -0.12,0.96 -1.992,-0.312 c 0.313,-1.992 0.624,-5.161 0.769,-7.609 h 4.344 v -3.528 h -5.088 v -2.136 h 7.272 v 8.401 h -2.185 v -0.72 h -2.496 c -0.071,0.984 -0.168,1.992 -0.264,2.952 z m 12.698,7.464 c -0.408,-0.6 -0.84,-1.2 -1.271,-1.728 l 1.823,-0.864 c 1.345,1.584 2.785,3.72 3.337,5.208 l -1.943,0.96 c -0.168,-0.504 -0.457,-1.08 -0.793,-1.704 -3.96,0.288 -8.041,0.552 -10.705,0.696 -0.048,0.216 -0.216,0.336 -0.384,0.36 l -0.769,-2.52 c 1.585,-0.048 3.673,-0.12 5.977,-0.216 v -3.12 h -4.608 v -6.745 h 4.608 v -2.28 c -1.824,0.096 -3.479,0.168 -4.8,0.216 -0.024,0.216 -0.216,0.336 -0.384,0.36 l -0.721,-2.472 c 0.624,0 1.32,-0.024 2.088,-0.024 0.961,-1.512 2.017,-3.601 2.617,-5.113 l 2.688,0.792 c -0.07,0.168 -0.286,0.264 -0.6,0.264 -0.576,1.2 -1.464,2.712 -2.328,4.008 1.896,-0.048 3.961,-0.096 6.049,-0.168 -0.527,-0.648 -1.104,-1.296 -1.633,-1.872 l 1.873,-0.936 c 1.488,1.512 3.145,3.552 3.863,4.992 l -1.992,1.032 c -0.191,-0.408 -0.455,-0.888 -0.791,-1.392 l -3.217,0.168 c -0.023,0.192 -0.168,0.312 -0.527,0.384 v 2.04 h 4.801 v 6.745 h -4.801 v 3.048 z m -7.345,-4.848 h 2.616 v -2.88 h -2.616 z m 7.513,-2.88 h -2.711 v 2.88 h 2.711 z" />
</g><path
     id="circle4754"
     d="m 187.92001,120.119 a 22.32,22.32 0 0 1 -22.32,22.32 22.32,22.32 0 0 1 -22.32,-22.32 22.32,22.32 0 0 1 22.32,-22.319996 22.32,22.32 0 0 1 22.32,22.319996 z"
     style="fill:#e6bc00;stroke:#000000;stroke-width:6;stroke-miterlimit:10" /><g
     transform="translate(0,-10)"
     id="g4758">
	<path
   inkscape:connector-curvature="0"
   id="path4756"
   d="m 162.828,127.838 1.176,0.048 c 0,0.192 0,0.48 -0.024,0.744 -0.144,8.065 -0.288,10.825 -0.912,11.689 -0.48,0.696 -1.056,0.984 -2.784,0.984 -0.432,0 -0.888,-0.024 -1.368,-0.048 -0.048,-0.6 -0.264,-1.512 -0.6,-2.064 0.912,0.072 1.704,0.096 2.088,0.096 0.36,0 0.552,-0.072 0.744,-0.36 0.384,-0.504 0.528,-2.736 0.672,-9 h -2.664 c -0.312,4.416 -1.08,8.617 -3.336,11.473 -0.36,-0.552 -1.08,-1.224 -1.656,-1.584 2.664,-3.36 2.904,-9.121 3,-15.001 h -2.712 v -2.112 h 4.152 v -3.816 l 2.832,0.168 c -0.024,0.216 -0.192,0.336 -0.576,0.408 v 3.24 h 4.32 v 2.112 h -5.809 c -0.024,1.008 -0.048,2.041 -0.096,3.048 h 3.072 z m 13.945,-2.377 h -1.776 c -0.576,3.745 -1.512,6.889 -2.977,9.481 1.296,1.944 2.928,3.48 5.017,4.44 -0.528,0.456 -1.248,1.344 -1.584,1.968 -1.968,-1.056 -3.528,-2.52 -4.801,-4.344 -1.44,1.8 -3.264,3.264 -5.616,4.368 -0.216,-0.528 -0.816,-1.464 -1.176,-1.896 2.4,-1.056 4.201,-2.568 5.568,-4.537 -0.912,-1.776 -1.608,-3.792 -2.16,-6 -0.432,0.816 -0.888,1.56 -1.368,2.208 -0.408,-0.432 -1.248,-1.128 -1.752,-1.464 1.824,-2.352 3.12,-6.601 3.792,-10.849 l 2.808,0.6 c -0.072,0.192 -0.264,0.312 -0.6,0.312 -0.216,1.2 -0.48,2.424 -0.816,3.601 h 7.44 z m -8.065,0 -0.096,0.24 c 0.48,2.52 1.176,4.873 2.136,6.937 0.936,-2.04 1.584,-4.417 2.016,-7.177 z" />
</g><path
     id="circle4760"
     d="m 360.71999,120.119 a 22.32,22.32 0 0 1 -22.32,22.32 22.32,22.32 0 0 1 -22.32,-22.32 22.32,22.32 0 0 1 22.32,-22.319996 22.32,22.32 0 0 1 22.32,22.319996 z"
     style="fill:#f2f2f2;stroke:#000000;stroke-width:6;stroke-miterlimit:10" /><g
     transform="translate(0,-10)"
     id="g4764">
	<path
   inkscape:connector-curvature="0"
   id="path4762"
   d="m 344.304,131.582 1.609,1.008 c -0.049,0.144 -0.193,0.24 -0.385,0.288 -1.152,1.896 -2.784,3.432 -4.752,4.632 2.495,0.912 5.495,1.488 8.881,1.704 -0.48,0.552 -1.058,1.512 -1.346,2.136 -3.937,-0.384 -7.249,-1.2 -9.961,-2.568 -2.976,1.32 -6.456,2.136 -10.104,2.616 -0.168,-0.552 -0.696,-1.56 -1.104,-2.04 3.266,-0.312 6.36,-0.912 9.001,-1.896 -1.079,-0.768 -2.04,-1.68 -2.881,-2.712 -1.15,0.768 -2.472,1.488 -4.008,2.136 -0.313,-0.552 -0.96,-1.344 -1.438,-1.68 3.791,-1.392 6.384,-3.408 7.729,-5.353 l 2.712,0.48 c -0.097,-0.6 -0.359,-1.344 -0.601,-1.896 0.601,0.024 1.201,0.048 1.655,0.048 0.984,0 1.08,0 1.08,-0.36 v -4.873 h -2.854 c 0,2.448 -0.336,5.761 -4.129,8.113 -0.359,-0.48 -1.152,-1.2 -1.656,-1.536 3.313,-1.944 3.648,-4.584 3.648,-6.577 h -7.705 v -2.112 h 9.457 v -2.28 l 2.903,0.168 c -0.022,0.216 -0.19,0.336 -0.575,0.408 v 1.704 h 9.576 v 2.112 H 342.6 v 4.944 c 0,2.041 -0.743,2.256 -4.319,2.256 v -0.072 c -0.072,0.192 -0.266,0.288 -0.576,0.288 -0.265,0.336 -0.553,0.672 -0.84,1.008 h 7.031 z m -10.705,-6.528 c -0.096,0.192 -0.286,0.264 -0.526,0.24 -0.84,1.464 -2.568,3.384 -4.272,4.561 -0.384,-0.432 -1.128,-1.032 -1.56,-1.344 1.606,-1.008 3.168,-2.688 3.862,-4.176 z m 1.344,8.448 -0.049,0.048 c 0.912,1.152 2.112,2.112 3.576,2.928 1.562,-0.816 2.881,-1.8 3.864,-2.976 z m 12.673,-3.48 c -0.744,-1.296 -2.496,-3.336 -3.984,-4.776 l 1.752,-1.032 c 1.514,1.368 3.313,3.313 4.152,4.657 z" />
</g><path
     id="circle4766"
     d="m 187.92001,219.882 a 22.32,22.32 0 0 1 -22.32,22.32 22.32,22.32 0 0 1 -22.32,-22.32 22.32,22.32 0 0 1 22.32,-22.32 22.32,22.32 0 0 1 22.32,22.32 z"
     style="fill:#f2f2f2;stroke:#000000;stroke-width:6;stroke-miterlimit:10" /><g
     transform="translate(0,-10)"
     id="g4770">
	<path
   inkscape:connector-curvature="0"
   id="path4768"
   d="m 161.711,229.282 0.264,1.92 c -0.864,0.288 -1.728,0.575 -2.568,0.841 v 6.527 c 0,1.969 -0.624,2.593 -4.08,2.545 -0.048,-0.553 -0.336,-1.512 -0.624,-2.112 0.504,0 0.96,0.024 1.344,0.024 1.2,0 1.272,0 1.272,-0.433 v -5.881 c -0.792,0.24 -1.512,0.455 -2.112,0.647 -0.024,0.216 -0.192,0.359 -0.36,0.433 l -0.672,-2.545 c 0.888,-0.19 1.968,-0.479 3.145,-0.791 v -4.896 h -2.856 v -2.09 h 2.856 v -4.824 l 2.64,0.121 c -0.024,0.215 -0.168,0.336 -0.552,0.383 v 4.32 h 2.616 v 2.09 h -2.616 v 4.344 z m 14.882,5.257 h -5.017 c 1.344,1.607 3.457,3.096 5.449,3.863 -0.504,0.408 -1.176,1.225 -1.512,1.777 -1.992,-0.962 -4.056,-2.666 -5.497,-4.562 v 5.448 h -2.16 v -5.33 c -1.464,1.896 -3.456,3.554 -5.472,4.488 -0.336,-0.526 -1.008,-1.344 -1.488,-1.752 2.016,-0.791 4.104,-2.279 5.448,-3.936 h -4.848 v -1.945 h 6.36 v -1.68 h -5.616 v -5.473 h 6.192 v 5.281 l 1.272,0.096 v -5.377 h 6.361 v 5.473 h -5.497 c -0.048,0.168 -0.216,0.264 -0.552,0.336 v 1.344 h 6.577 z m -10.009,-5.257 v -2.208 h -2.568 v 2.208 z m 6.937,-10.009 v 5.184 h -8.881 v -5.184 z m -2.161,3.577 v -1.943 h -4.681 v 1.943 z m 0.12,4.224 v 2.208 h 2.712 v -2.208 z" />
</g><path
     id="circle4772"
     d="m 360.71999,219.881 a 22.32,22.32 0 0 1 -22.32,22.32 22.32,22.32 0 0 1 -22.32,-22.32 22.32,22.32 0 0 1 22.32,-22.32 22.32,22.32 0 0 1 22.32,22.32 z"
     style="fill:#f2f2f2;stroke:#000000;stroke-width:6;stroke-miterlimit:10" /><g
     transform="translate(0,-10)"
     id="g4776">
	<path
   inkscape:connector-curvature="0"
   id="path4774"
   d="m 336.805,237.73 c -0.096,0.071 -0.265,0.119 -0.504,0.145 -1.705,1.08 -4.873,2.424 -7.346,3.216 -0.359,-0.505 -1.056,-1.272 -1.584,-1.753 2.496,-0.719 5.665,-2.063 7.297,-3.168 z m -9.217,-4.032 h 21.553 v 2.112 h -21.553 z m 3.456,-14.113 h 14.81 v 12.696 h -14.81 z m 2.231,1.752 v 1.944 h 10.226 v -1.944 z m 0,3.601 v 1.943 h 10.226 v -1.943 z m 0,3.599 v 1.969 h 10.226 v -1.969 z m 13.899,12.554 c -1.633,-0.96 -4.44,-2.257 -7.129,-3.239 l 1.703,-1.537 c 2.761,0.984 5.833,2.281 7.682,3.218 z" />
</g><path
     id="circle4778"
     d="m 274.32,269.76599 a 22.32,22.32 0 0 1 -22.32,22.32 22.32,22.32 0 0 1 -22.32,-22.32 22.32,22.32 0 0 1 22.32,-22.32 22.32,22.32 0 0 1 22.32,22.32 z"
     style="fill:#f2f2f2;stroke:#000000;stroke-width:6;stroke-miterlimit:10" /><g
     transform="translate(0,-10)"
     id="g4782">
	<path
   inkscape:connector-curvature="0"
   id="path4780"
   d="m 260.354,278.373 c -0.022,0.191 -0.168,0.336 -0.552,0.384 v 1.849 h 3.169 v 2.111 h -3.169 v 5.762 c 0,2.279 -0.937,2.521 -5.017,2.521 -0.072,-0.647 -0.385,-1.536 -0.672,-2.16 0.768,0.022 1.512,0.048 2.088,0.048 1.248,0 1.344,0 1.344,-0.433 v -5.736 h -8.088 v -0.791 l -2.473,0.673 v 8.377 H 244.8 v -7.802 c -1.104,0.312 -2.112,0.552 -2.928,0.769 -0.024,0.19 -0.192,0.336 -0.36,0.384 l -0.816,-2.567 c 1.104,-0.217 2.544,-0.505 4.104,-0.841 v -5.399 h -1.752 c -0.288,1.367 -0.624,2.64 -1.032,3.601 -0.312,-0.313 -0.984,-0.89 -1.416,-1.177 0.696,-1.896 1.104,-5.137 1.344,-8.186 l 2.376,0.553 c -0.072,0.168 -0.216,0.287 -0.552,0.287 -0.096,0.889 -0.216,1.824 -0.336,2.736 h 1.368 v -4.824 l 2.736,0.168 c -0.024,0.217 -0.168,0.336 -0.552,0.385 v 4.271 h 2.785 v 2.186 h -2.785 v 4.92 l 2.856,-0.625 0.072,0.793 h 7.632 v -2.377 z m -3.241,-2.519 h 6.145 v 2.111 h -14.233 v -2.111 h 5.833 v -2.641 h -4.512 v -2.064 h 4.512 v -2.641 l 2.832,0.145 c -0.022,0.217 -0.19,0.336 -0.575,0.408 v 2.088 h 4.776 v 2.064 h -4.776 z m -4.032,12.384 c -0.456,-1.08 -1.56,-2.713 -2.592,-3.889 l 1.776,-0.912 c 1.008,1.127 2.184,2.688 2.665,3.768 z" />
</g><g
     id="text5118"
     style="font-style:normal;font-weight:normal;font-size:21.33333397px;line-height:1.25;font-family:sans-serif;letter-spacing:0px;word-spacing:0px;fill:#000000;fill-opacity:1;stroke:none"
     aria-label="80%"><path
       id="path11879"
       style="font-style:normal;font-variant:normal;font-weight:bold;font-stretch:normal;font-size:17.33333397px;font-family:'Yu Gothic';-inkscape-font-specification:'Yu Gothic Bold'"
       d="m 240.84192,33.48209 q 1.51498,0.719401 2.10743,1.641927 0.51627,0.804036 0.51627,2.022786 0,1.768881 -1.32031,2.784506 -1.14258,0.888672 -2.94531,0.888672 -2.10742,0 -3.26693,-1.091797 -1.01563,-0.956381 -1.01563,-2.513672 0,-1.19336 0.70248,-1.997396 0.59245,-0.677084 1.86198,-1.303386 -1.278,-0.660156 -1.8112,-1.565755 -0.4401,-0.753255 -0.4401,-1.811198 0,-1.557292 1.22721,-2.539062 1.0918,-0.871745 2.72526,-0.871745 1.87891,0 3.00456,1.057942 0.98177,0.914063 0.98177,2.285157 0,2.05664 -2.32748,3.013021 z m -1.27799,-0.626302 q 0.9056,-0.473959 1.26107,-1.066407 0.29622,-0.499349 0.29622,-1.235677 0,-0.888672 -0.6263,-1.404948 -0.52474,-0.43164 -1.31185,-0.43164 -0.91406,0 -1.4388,0.541666 -0.4655,0.482422 -0.4655,1.261068 0,0.736328 0.44857,1.21875 0.40625,0.448568 1.35417,0.897136 z m -0.76172,1.718099 q -1.00716,0.558593 -1.43034,1.167968 -0.38932,0.567058 -0.38932,1.33724 0,1.032552 0.66862,1.625 0.59245,0.52474 1.5319,0.52474 1.10026,0 1.69271,-0.609375 0.52474,-0.533203 0.52474,-1.404948 0,-0.829427 -0.51628,-1.379558 -0.46549,-0.482421 -1.58268,-1.015625 z" /><path
       id="path11881"
       style="font-style:normal;font-variant:normal;font-weight:bold;font-stretch:normal;font-size:17.33333397px;font-family:'Yu Gothic';-inkscape-font-specification:'Yu Gothic Bold'"
       d="m 249.15312,27.12597 q 2.20052,0 3.21615,1.785807 0.93945,1.667318 0.93945,5.010417 0,3.825521 -1.22721,5.501302 -1.02409,1.396485 -2.97071,1.396485 -2.22591,0 -3.22461,-1.819662 -0.91406,-1.675781 -0.91406,-5.044271 0,-3.808594 1.23568,-5.467448 1.01562,-1.36263 2.94531,-1.36263 z m 0,1.709635 q -1.11719,0 -1.54036,1.244141 -0.40625,1.167969 -0.40625,3.850911 0,3.072266 0.50781,4.206381 0.42318,0.964844 1.39648,0.964844 1.14258,0 1.57422,-1.294922 0.38933,-1.176433 0.38933,-3.876303 0,-3.055338 -0.50782,-4.155599 -0.42317,-0.939453 -1.41341,-0.939453 z" /><path
       id="path11883"
       style="font-style:normal;font-variant:normal;font-weight:bold;font-stretch:normal;font-size:17.33333397px;font-family:'Yu Gothic';-inkscape-font-specification:'Yu Gothic Bold'"
       d="m 257.90442,27.12597 q 1.43881,0 2.22592,0.981771 0.7194,0.897135 0.7194,2.429036 0,1.751953 -0.92253,2.691406 -0.77865,0.78711 -2.02279,0.78711 -1.41341,0 -2.20898,-1.024089 -0.70247,-0.914062 -0.70247,-2.4375 0,-1.751953 0.91406,-2.666016 0.76172,-0.761718 1.99739,-0.761718 z m 0,1.193359 q -1.24414,0 -1.24414,2.234375 0,2.285157 1.24414,2.285157 1.26107,0 1.26107,-2.285157 0,-2.234375 -1.26107,-2.234375 z m 8.09115,-1.193359 -8.14193,13.694011 h -1.05794 l 8.16732,-13.694011 z m -1.04948,6.796224 q 1.41341,0 2.20052,0.990234 0.71094,0.897136 0.71094,2.420573 0,1.760417 -0.92253,2.69987 -0.77018,0.78711 -1.98893,0.78711 -1.44726,0 -2.24284,-1.024089 -0.71094,-0.922526 -0.71094,-2.462891 0,-1.743489 0.91407,-2.649088 0.77864,-0.761719 2.03971,-0.761719 z m 0,1.176432 q -1.26953,0 -1.26953,2.251302 0,2.29362 1.26953,2.29362 1.24414,0 1.24414,-2.29362 0,-2.251302 -1.24414,-2.251302 z" /></g><g
     id="text5118-8"
     style="font-style:normal;font-weight:normal;font-size:21.33333397px;line-height:1.25;font-family:sans-serif;letter-spacing:0px;word-spacing:0px;fill:#000000;fill-opacity:1;stroke:none"
     aria-label="0%"><path
       id="path11874"
       style="font-style:normal;font-variant:normal;font-weight:bold;font-stretch:normal;font-size:17.33333397px;font-family:'Yu Gothic';-inkscape-font-specification:'Yu Gothic Bold'"
       d="m 244.12578,314.92623 q 2.20052,0 3.21614,1.78581 0.93946,1.66731 0.93946,5.01041 0,3.82552 -1.22722,5.5013 -1.02408,1.39649 -2.9707,1.39649 -2.22591,0 -3.22461,-1.81966 -0.91406,-1.67578 -0.91406,-5.04427 0,-3.8086 1.23568,-5.46745 1.01562,-1.36263 2.94531,-1.36263 z m 0,1.70963 q -1.11719,0 -1.54037,1.24414 -0.40625,1.16797 -0.40625,3.85092 0,3.07226 0.50782,4.20638 0.42317,0.96484 1.39648,0.96484 1.14258,0 1.57422,-1.29492 0.38932,-1.17643 0.38932,-3.8763 0,-3.05534 -0.50781,-4.1556 -0.42318,-0.93946 -1.41341,-0.93946 z" /><path
       id="path11876"
       style="font-style:normal;font-variant:normal;font-weight:bold;font-stretch:normal;font-size:17.33333397px;font-family:'Yu Gothic';-inkscape-font-specification:'Yu Gothic Bold'"
       d="m 252.87708,314.92623 q 1.4388,0 2.22591,0.98177 0.7194,0.89713 0.7194,2.42904 0,1.75195 -0.92252,2.6914 -0.77865,0.78711 -2.02279,0.78711 -1.41341,0 -2.20898,-1.02409 -0.70248,-0.91406 -0.70248,-2.4375 0,-1.75195 0.91406,-2.66601 0.76172,-0.76172 1.9974,-0.76172 z m 0,1.19336 q -1.24414,0 -1.24414,2.23437 0,2.28516 1.24414,2.28516 1.26107,0 1.26107,-2.28516 0,-2.23437 -1.26107,-2.23437 z m 8.09115,-1.19336 -8.14193,13.69401 h -1.05794 l 8.16731,-13.69401 z m -1.04948,6.79622 q 1.41341,0 2.20052,0.99024 0.71094,0.89713 0.71094,2.42057 0,1.76042 -0.92253,2.69987 -0.77018,0.78711 -1.98893,0.78711 -1.44727,0 -2.24284,-1.02409 -0.71094,-0.92253 -0.71094,-2.46289 0,-1.74349 0.91406,-2.64909 0.77865,-0.76172 2.03972,-0.76172 z m 0,1.17643 q -1.26953,0 -1.26953,2.25131 0,2.29362 1.26953,2.29362 1.24414,0 1.24414,-2.29362 0,-2.25131 -1.24414,-2.25131 z" /></g><g
     id="text5118-8-9"
     style="font-style:normal;font-weight:normal;font-size:21.33333397px;line-height:1.25;font-family:sans-serif;letter-spacing:0px;word-spacing:0px;fill:#000000;fill-opacity:1;stroke:none"
     aria-label="60%"><path
       id="path11867"
       style="font-style:normal;font-variant:normal;font-weight:bold;font-stretch:normal;font-size:17.33333397px;font-family:'Yu Gothic';-inkscape-font-specification:'Yu Gothic Bold'"
       d="m 415.48659,117.37009 -2.11588,0.78711 q -0.2793,-1.30338 -1.37956,-1.30338 -2.28516,0 -2.39518,4.68033 0.9056,-1.55729 2.69987,-1.55729 1.66732,0 2.61523,1.29492 0.83789,1.14258 0.83789,2.98763 0,2.26823 -1.27799,3.55469 -1.08334,1.0918 -2.75912,1.0918 -2.14127,0 -3.22461,-1.70964 -1.02408,-1.60807 -1.02408,-4.63802 0,-7.34635 4.57877,-7.34635 2.53906,0 3.44466,2.1582 z m -5.8737,5.94987 q 0,3.91862 2.08204,3.91862 1.87044,0 1.87044,-2.91146 0,-2.68294 -1.78581,-2.68294 -1.33724,0 -2.16667,1.67578 z" /><path
       id="path11869"
       style="font-style:normal;font-variant:normal;font-weight:bold;font-stretch:normal;font-size:17.33333397px;font-family:'Yu Gothic';-inkscape-font-specification:'Yu Gothic Bold'"
       d="m 421.51263,115.21189 q 2.20053,0 3.21615,1.78581 0.93945,1.66731 0.93945,5.01041 0,3.82552 -1.22721,5.5013 -1.02409,1.39649 -2.9707,1.39649 -2.22591,0 -3.22461,-1.81966 -0.91407,-1.67578 -0.91407,-5.04427 0,-3.8086 1.23568,-5.46745 1.01563,-1.36263 2.94531,-1.36263 z m 0,1.70963 q -1.11718,0 -1.54036,1.24414 -0.40625,1.16797 -0.40625,3.85092 0,3.07226 0.50781,4.20638 0.42318,0.96484 1.39649,0.96484 1.14257,0 1.57422,-1.29492 0.38932,-1.17643 0.38932,-3.8763 0,-3.05534 -0.50781,-4.1556 -0.42318,-0.93946 -1.41342,-0.93946 z" /><path
       id="path11871"
       style="font-style:normal;font-variant:normal;font-weight:bold;font-stretch:normal;font-size:17.33333397px;font-family:'Yu Gothic';-inkscape-font-specification:'Yu Gothic Bold'"
       d="m 430.26394,115.21189 q 1.4388,0 2.22591,0.98177 0.7194,0.89713 0.7194,2.42904 0,1.75195 -0.92253,2.6914 -0.77864,0.78711 -2.02278,0.78711 -1.41342,0 -2.20899,-1.02409 -0.70247,-0.91406 -0.70247,-2.4375 0,-1.75195 0.91406,-2.66601 0.76172,-0.76172 1.9974,-0.76172 z m 0,1.19336 q -1.24414,0 -1.24414,2.23437 0,2.28516 1.24414,2.28516 1.26106,0 1.26106,-2.28516 0,-2.23437 -1.26106,-2.23437 z m 8.09114,-1.19336 -8.14192,13.69401 h -1.05795 l 8.16732,-13.69401 z m -1.04948,6.79622 q 1.41341,0 2.20052,0.99024 0.71094,0.89713 0.71094,2.42057 0,1.76042 -0.92252,2.69987 -0.77019,0.78711 -1.98894,0.78711 -1.44726,0 -2.24284,-1.02409 -0.71093,-0.92253 -0.71093,-2.46289 0,-1.74349 0.91406,-2.64909 0.77865,-0.76172 2.03971,-0.76172 z m 0,1.17643 q -1.26953,0 -1.26953,2.25131 0,2.29362 1.26953,2.29362 1.24414,0 1.24414,-2.29362 0,-2.25131 -1.24414,-2.25131 z" /></g><g
     id="text5118-8-5"
     style="font-style:normal;font-weight:normal;font-size:21.33333397px;line-height:1.25;font-family:sans-serif;letter-spacing:0px;word-spacing:0px;fill:#000000;fill-opacity:1;stroke:none"
     aria-label="40%"><path
       id="path11860"
       style="font-style:normal;font-variant:normal;font-weight:bold;font-stretch:normal;font-size:17.33333397px;font-family:'Yu Gothic';-inkscape-font-specification:'Yu Gothic Bold'"
       d="m 414.22601,214.55269 v 8.68359 h 1.65039 v 1.63347 h -1.65039 v 2.99609 h -1.99739 v -2.99609 h -5.04427 v -1.53191 l 4.29948,-8.78515 z m -1.99739,8.68359 v -2.91146 q 0,-1.38802 0.10156,-4.05403 h -0.23698 q -0.59245,1.55729 -1.47266,3.46159 l -1.63346,3.5039 z" /><path
       id="path11862"
       style="font-style:normal;font-variant:normal;font-weight:bold;font-stretch:normal;font-size:17.33333397px;font-family:'Yu Gothic';-inkscape-font-specification:'Yu Gothic Bold'"
       d="m 421.51312,214.41727 q 2.20052,0 3.21615,1.78581 0.93945,1.66732 0.93945,5.01042 0,3.82552 -1.22721,5.5013 -1.02409,1.39648 -2.9707,1.39648 -2.22592,0 -3.22461,-1.81966 -0.91407,-1.67578 -0.91407,-5.04427 0,-3.80859 1.23568,-5.46745 1.01563,-1.36263 2.94531,-1.36263 z m 0,1.70964 q -1.11718,0 -1.54036,1.24414 -0.40625,1.16797 -0.40625,3.85091 0,3.07226 0.50781,4.20638 0.42318,0.96484 1.39649,0.96484 1.14257,0 1.57421,-1.29492 0.38933,-1.17643 0.38933,-3.8763 0,-3.05534 -0.50782,-4.1556 -0.42317,-0.93945 -1.41341,-0.93945 z" /><path
       id="path11864"
       style="font-style:normal;font-variant:normal;font-weight:bold;font-stretch:normal;font-size:17.33333397px;font-family:'Yu Gothic';-inkscape-font-specification:'Yu Gothic Bold'"
       d="m 430.26442,214.41727 q 1.43881,0 2.22592,0.98177 0.7194,0.89714 0.7194,2.42904 0,1.75195 -0.92253,2.69141 -0.77864,0.7871 -2.02279,0.7871 -1.41341,0 -2.20898,-1.02408 -0.70247,-0.91407 -0.70247,-2.4375 0,-1.75196 0.91406,-2.66602 0.76172,-0.76172 1.99739,-0.76172 z m 0,1.19336 q -1.24414,0 -1.24414,2.23438 0,2.28515 1.24414,2.28515 1.26107,0 1.26107,-2.28515 0,-2.23438 -1.26107,-2.23438 z m 8.09115,-1.19336 -8.14193,13.69401 h -1.05794 l 8.16732,-13.69401 z m -1.04948,6.79623 q 1.41341,0 2.20052,0.99023 0.71094,0.89714 0.71094,2.42057 0,1.76042 -0.92253,2.69987 -0.77018,0.78711 -1.98893,0.78711 -1.44726,0 -2.24284,-1.02409 -0.71093,-0.92252 -0.71093,-2.46289 0,-1.74349 0.91406,-2.64909 0.77864,-0.76171 2.03971,-0.76171 z m 0,1.17643 q -1.26953,0 -1.26953,2.2513 0,2.29362 1.26953,2.29362 1.24414,0 1.24414,-2.29362 0,-2.2513 -1.24414,-2.2513 z" /></g><g
     id="text5118-8-3"
     style="font-style:normal;font-weight:normal;font-size:21.33333397px;line-height:1.25;font-family:sans-serif;letter-spacing:0px;word-spacing:0px;fill:#000000;fill-opacity:1;stroke:none"
     aria-label="100%"><path
       id="path11851"
       style="font-style:normal;font-variant:normal;font-weight:bold;font-stretch:normal;font-size:17.33333397px;font-family:'Yu Gothic';-inkscape-font-specification:'Yu Gothic Bold'"
       d="m 65.064725,116.11478 v 11.6289 h 2.462891 v 1.68425 h -7.126302 v -1.68425 h 2.598307 v -9.42838 q -1.066406,0.72786 -2.445963,1.17643 l -0.347006,-1.81966 q 1.582683,-0.45703 3.08073,-1.55729 z" /><path
       id="path11853"
       style="font-style:normal;font-variant:normal;font-weight:bold;font-stretch:normal;font-size:17.33333397px;font-family:'Yu Gothic';-inkscape-font-specification:'Yu Gothic Bold'"
       d="m 73.756783,115.97936 q 2.200521,0 3.216146,1.78581 0.939453,1.66731 0.939453,5.01041 0,3.82552 -1.227214,5.50131 -1.024088,1.39648 -2.970703,1.39648 -2.225912,0 -3.224609,-1.81966 -0.914063,-1.67578 -0.914063,-5.04427 0,-3.8086 1.235677,-5.46745 1.015625,-1.36263 2.945313,-1.36263 z m 0,1.70963 q -1.117188,0 -1.540365,1.24415 -0.40625,1.16796 -0.40625,3.85091 0,3.07226 0.507813,4.20638 0.423177,0.96484 1.396484,0.96484 1.142578,0 1.574219,-1.29492 0.389323,-1.17643 0.389323,-3.8763 0,-3.05534 -0.507813,-4.1556 -0.423177,-0.93946 -1.413411,-0.93946 z" /><path
       id="path11855"
       style="font-style:normal;font-variant:normal;font-weight:bold;font-stretch:normal;font-size:17.33333397px;font-family:'Yu Gothic';-inkscape-font-specification:'Yu Gothic Bold'"
       d="m 83.709908,115.97936 q 2.200521,0 3.216146,1.78581 0.939453,1.66731 0.939453,5.01041 0,3.82552 -1.227214,5.50131 -1.024088,1.39648 -2.970703,1.39648 -2.225912,0 -3.224609,-1.81966 -0.914063,-1.67578 -0.914063,-5.04427 0,-3.8086 1.235677,-5.46745 1.015625,-1.36263 2.945313,-1.36263 z m 0,1.70963 q -1.117188,0 -1.540365,1.24415 -0.40625,1.16796 -0.40625,3.85091 0,3.07226 0.507813,4.20638 0.423177,0.96484 1.396484,0.96484 1.142578,0 1.574219,-1.29492 0.389323,-1.17643 0.389323,-3.8763 0,-3.05534 -0.507813,-4.1556 -0.423177,-0.93946 -1.413411,-0.93946 z" /><path
       id="path11857"
       style="font-style:normal;font-variant:normal;font-weight:bold;font-stretch:normal;font-size:17.33333397px;font-family:'Yu Gothic';-inkscape-font-specification:'Yu Gothic Bold'"
       d="m 92.46121,115.97936 q 1.438802,0 2.225911,0.98177 0.719401,0.89714 0.719401,2.42904 0,1.75195 -0.922526,2.6914 -0.778646,0.78711 -2.022786,0.78711 -1.413412,0 -2.208985,-1.02409 -0.702474,-0.91406 -0.702474,-2.4375 0,-1.75195 0.914063,-2.66601 0.761719,-0.76172 1.997396,-0.76172 z m 0,1.19336 q -1.244141,0 -1.244141,2.23437 0,2.28516 1.244141,2.28516 1.261068,0 1.261068,-2.28516 0,-2.23437 -1.261068,-2.23437 z m 8.09115,-1.19336 -8.141931,13.69401 h -1.057943 l 8.167318,-13.69401 z m -1.049483,6.79622 q 1.413413,0 2.200523,0.99024 0.71094,0.89713 0.71094,2.42057 0,1.76042 -0.92253,2.69987 -0.77018,0.78711 -1.988933,0.78711 -1.447266,0 -2.242839,-1.02409 -0.710937,-0.92252 -0.710937,-2.46289 0,-1.74349 0.914062,-2.64909 0.778646,-0.76172 2.039714,-0.76172 z m 0,1.17644 q -1.269532,0 -1.269532,2.2513 0,2.29362 1.269532,2.29362 1.244143,0 1.244143,-2.29362 0,-2.2513 -1.244143,-2.2513 z" /></g><g
     id="text5118-8-1"
     style="font-style:normal;font-weight:normal;font-size:21.33333397px;line-height:1.25;font-family:sans-serif;letter-spacing:0px;word-spacing:0px;fill:#000000;fill-opacity:1;stroke:none"
     aria-label="80%"><path
       id="path11844"
       style="font-style:normal;font-variant:normal;font-weight:bold;font-stretch:normal;font-size:17.33333397px;font-family:'Yu Gothic';-inkscape-font-specification:'Yu Gothic Bold'"
       d="m 67.445932,221.38861 q 1.514974,0.7194 2.107422,1.64193 0.516276,0.80403 0.516276,2.02278 0,1.76888 -1.320313,2.78451 -1.142578,0.88867 -2.945312,0.88867 -2.107422,0 -3.266927,-1.0918 -1.015625,-0.95638 -1.015625,-2.51367 0,-1.19336 0.702474,-1.99739 0.592448,-0.67709 1.861979,-1.30339 -1.277995,-0.66016 -1.811198,-1.56575 -0.440104,-0.75326 -0.440104,-1.8112 0,-1.55729 1.227213,-2.53906 1.091797,-0.87175 2.725261,-0.87175 1.878906,0 3.004557,1.05794 0.981771,0.91407 0.981771,2.28516 0,2.05664 -2.327474,3.01302 z m -1.277995,-0.6263 q 0.905599,-0.47396 1.261068,-1.06641 0.296224,-0.49935 0.296224,-1.23567 0,-0.88868 -0.626302,-1.40495 -0.52474,-0.43164 -1.311849,-0.43164 -0.914063,0 -1.438802,0.54166 -0.465495,0.48243 -0.465495,1.26107 0,0.73633 0.448568,1.21875 0.40625,0.44857 1.354166,0.89714 z m -0.761719,1.7181 q -1.007161,0.55859 -1.430338,1.16797 -0.389323,0.56705 -0.389323,1.33724 0,1.03255 0.66862,1.625 0.592448,0.52474 1.531901,0.52474 1.10026,0 1.692708,-0.60938 0.52474,-0.5332 0.52474,-1.40495 0,-0.82942 -0.516276,-1.37955 -0.465495,-0.48243 -1.582683,-1.01563 z" /><path
       id="path11846"
       style="font-style:normal;font-variant:normal;font-weight:bold;font-stretch:normal;font-size:17.33333397px;font-family:'Yu Gothic';-inkscape-font-specification:'Yu Gothic Bold'"
       d="m 75.75713,215.03249 q 2.200521,0 3.216146,1.78581 0.939453,1.66732 0.939453,5.01041 0,3.82553 -1.227214,5.50131 -1.024088,1.39648 -2.970703,1.39648 -2.225911,0 -3.224609,-1.81966 -0.914063,-1.67578 -0.914063,-5.04427 0,-3.80859 1.235677,-5.46745 1.015625,-1.36263 2.945313,-1.36263 z m 0,1.70964 q -1.117188,0 -1.540365,1.24414 -0.40625,1.16797 -0.40625,3.85091 0,3.07226 0.507813,4.20638 0.423177,0.96484 1.396484,0.96484 1.142578,0 1.574219,-1.29492 0.389323,-1.17643 0.389323,-3.8763 0,-3.05534 -0.507813,-4.1556 -0.423177,-0.93945 -1.413411,-0.93945 z" /><path
       id="path11848"
       style="font-style:normal;font-variant:normal;font-weight:bold;font-stretch:normal;font-size:17.33333397px;font-family:'Yu Gothic';-inkscape-font-specification:'Yu Gothic Bold'"
       d="m 84.508432,215.03249 q 1.438802,0 2.225911,0.98177 0.719401,0.89714 0.719401,2.42904 0,1.75195 -0.922526,2.6914 -0.778645,0.78711 -2.022786,0.78711 -1.413412,0 -2.208985,-1.02408 -0.702474,-0.91407 -0.702474,-2.4375 0,-1.75196 0.914063,-2.66602 0.761719,-0.76172 1.997396,-0.76172 z m 0,1.19336 q -1.244141,0 -1.244141,2.23438 0,2.28515 1.244141,2.28515 1.261068,0 1.261068,-2.28515 0,-2.23438 -1.261068,-2.23438 z m 8.091146,-1.19336 -8.141927,13.69401 h -1.057943 l 8.167318,-13.69401 z m -1.049479,6.79622 q 1.413411,0 2.200521,0.99024 0.710937,0.89713 0.710937,2.42057 0,1.76042 -0.922526,2.69987 -0.770182,0.78711 -1.988932,0.78711 -1.447266,0 -2.242839,-1.02409 -0.710937,-0.92252 -0.710937,-2.46289 0,-1.74349 0.914062,-2.64909 0.778646,-0.76172 2.039714,-0.76172 z m 0,1.17644 q -1.269531,0 -1.269531,2.2513 0,2.29362 1.269531,2.29362 1.24414,0 1.24414,-2.29362 0,-2.2513 -1.24414,-2.2513 z" /></g><g
     id="text5182"
     style="font-style:normal;font-weight:normal;font-size:21.33333397px;line-height:1.25;font-family:sans-serif;letter-spacing:0px;word-spacing:0px;fill:#000000;fill-opacity:1;stroke:none"
     aria-label="Emitter"><path
       id="path11831"
       style="font-style:normal;font-variant:normal;font-weight:bold;font-stretch:normal;font-size:26.66666603px;font-family:Calibri;-inkscape-font-specification:'Calibri Bold'"
       d="m 221.77813,180.16827 q 0,0.3776 -0.0391,0.63802 -0.026,0.2474 -0.0911,0.40365 -0.0651,0.15625 -0.16927,0.23437 -0.0911,0.0651 -0.20833,0.0651 h -8.46354 q -0.42969,0 -0.72917,-0.24739 -0.28646,-0.26042 -0.28646,-0.83333 v -14.6875 q 0,-0.57292 0.28646,-0.82032 0.29948,-0.26041 0.72917,-0.26041 h 8.41146 q 0.11718,0 0.20833,0.0651 0.0911,0.0651 0.15625,0.23438 0.0651,0.15625 0.0911,0.41666 0.0391,0.2474 0.0391,0.63802 0,0.36459 -0.0391,0.625 -0.026,0.2474 -0.0911,0.40365 -0.0651,0.15625 -0.15625,0.23437 -0.0911,0.0651 -0.20833,0.0651 h -6.01563 v 4.11458 h 5.09115 q 0.11718,0 0.20833,0.0781 0.10417,0.0651 0.16927,0.22135 0.0651,0.14323 0.0911,0.40365 0.0391,0.24739 0.0391,0.61198 0,0.3776 -0.0391,0.625 -0.026,0.24739 -0.0911,0.40364 -0.0651,0.14323 -0.16927,0.20833 -0.0911,0.0651 -0.20833,0.0651 h -5.09115 v 4.7526 h 6.06771 q 0.11719,0 0.20833,0.0781 0.10417,0.0651 0.16927,0.22135 0.0651,0.15625 0.0911,0.41667 0.0391,0.24739 0.0391,0.625 z" /><path
       id="path11833"
       style="font-style:normal;font-variant:normal;font-weight:bold;font-stretch:normal;font-size:26.66666603px;font-family:Calibri;-inkscape-font-specification:'Calibri Bold'"
       d="m 243.09324,181.06671 q 0,0.1302 -0.0781,0.23437 -0.0781,0.0911 -0.26042,0.15625 -0.18229,0.0651 -0.49479,0.0911 -0.3125,0.0391 -0.79427,0.0391 -0.49479,0 -0.80729,-0.0391 -0.3125,-0.026 -0.50781,-0.0911 -0.18229,-0.0651 -0.26042,-0.15625 -0.0651,-0.10417 -0.0651,-0.23437 v -6.88802 q 0,-0.58594 -0.11719,-1.06771 -0.10417,-0.48177 -0.33854,-0.82032 -0.22136,-0.35156 -0.57292,-0.53385 -0.33854,-0.19531 -0.82031,-0.19531 -0.58594,0 -1.1849,0.45573 -0.59896,0.45573 -1.30208,1.32812 v 7.72136 q 0,0.1302 -0.0781,0.23437 -0.0781,0.0911 -0.27343,0.15625 -0.1823,0.0651 -0.4948,0.0911 -0.3125,0.0391 -0.78125,0.0391 -0.48177,0 -0.79427,-0.0391 -0.3125,-0.026 -0.50781,-0.0911 -0.18229,-0.0651 -0.26042,-0.15625 -0.0781,-0.10417 -0.0781,-0.23437 v -6.88802 q 0,-0.58594 -0.11719,-1.06771 -0.10416,-0.48177 -0.32552,-0.82032 -0.22135,-0.35156 -0.57292,-0.53385 -0.35156,-0.19531 -0.82031,-0.19531 -0.59896,0 -1.19791,0.45573 -0.59896,0.45573 -1.28907,1.32812 v 7.72136 q 0,0.1302 -0.0781,0.23437 -0.0781,0.0911 -0.27344,0.15625 -0.18229,0.0651 -0.49479,0.0911 -0.3125,0.0391 -0.79427,0.0391 -0.48177,0 -0.79427,-0.0391 -0.3125,-0.026 -0.50781,-0.0911 -0.1823,-0.0651 -0.26042,-0.15625 -0.0781,-0.10417 -0.0781,-0.23437 v -11.61459 q 0,-0.13021 0.0651,-0.22135 0.0651,-0.10417 0.23437,-0.16927 0.16927,-0.0651 0.42969,-0.0911 0.27344,-0.0391 0.67708,-0.0391 0.41667,0 0.69011,0.0391 0.27344,0.026 0.41666,0.0911 0.15625,0.0651 0.22136,0.16927 0.0651,0.0911 0.0651,0.22135 v 1.34115 q 0.96354,-1.04167 1.91406,-1.5625 0.96355,-0.52083 2.00521,-0.52083 0.71615,0 1.28907,0.15625 0.57291,0.14322 1.01562,0.42968 0.45573,0.27344 0.78125,0.66407 0.32552,0.39062 0.54688,0.87239 0.52083,-0.55989 1.01562,-0.96354 0.50781,-0.40365 0.98958,-0.65104 0.4948,-0.26042 0.97657,-0.37761 0.49479,-0.1302 1.0026,-0.1302 1.15885,0 1.95313,0.39062 0.79427,0.39063 1.27604,1.06771 0.49479,0.66406 0.70312,1.5625 0.20834,0.89844 0.20834,1.90104 z" /><path
       id="path11835"
       style="font-style:normal;font-variant:normal;font-weight:bold;font-stretch:normal;font-size:26.66666603px;font-family:Calibri;-inkscape-font-specification:'Calibri Bold'"
       d="m 249.61667,181.06671 q 0,0.1302 -0.0781,0.23437 -0.0781,0.0911 -0.27344,0.15625 -0.18229,0.0651 -0.49479,0.0911 -0.3125,0.0391 -0.79427,0.0391 -0.48177,0 -0.79427,-0.0391 -0.3125,-0.026 -0.50782,-0.0911 -0.18229,-0.0651 -0.26041,-0.15625 -0.0781,-0.10417 -0.0781,-0.23437 v -11.58855 q 0,-0.1302 0.0781,-0.22135 0.0781,-0.10417 0.26041,-0.16927 0.19532,-0.0781 0.50782,-0.11719 0.3125,-0.0391 0.79427,-0.0391 0.48177,0 0.79427,0.0391 0.3125,0.0391 0.49479,0.11719 0.19531,0.0651 0.27344,0.16927 0.0781,0.0911 0.0781,0.22135 z m 0.2474,-15.54688 q 0,0.98959 -0.40365,1.36719 -0.40364,0.3776 -1.49739,0.3776 -1.10677,0 -1.4974,-0.36458 -0.3776,-0.36458 -0.3776,-1.3151 0,-0.98959 0.39062,-1.36719 0.40365,-0.39063 1.51042,-0.39063 1.09375,0 1.48437,0.37761 0.39063,0.36458 0.39063,1.3151 z" /><path
       id="path11837"
       style="font-style:normal;font-variant:normal;font-weight:bold;font-stretch:normal;font-size:26.66666603px;font-family:Calibri;-inkscape-font-specification:'Calibri Bold'"
       d="m 268.02813,179.92087 q 0,0.57292 -0.0781,0.8724 -0.0651,0.29948 -0.19532,0.42969 -0.11718,0.1302 -0.35156,0.22135 -0.22135,0.0911 -0.52083,0.16927 -0.29948,0.0781 -0.66407,0.11719 -0.35156,0.0391 -0.70312,0.0391 -0.98958,0 -1.70573,-0.24739 -0.71615,-0.2474 -1.1849,-0.75521 -0.46875,-0.52084 -0.6901,-1.30209 -0.22135,-0.78125 -0.22135,-1.84895 v -5.95053 h -4.98698 v 5.45573 q 0,0.95052 0.29948,1.4323 0.29948,0.46875 1.0677,0.46875 0.26042,0 0.46875,-0.0391 0.20834,-0.0521 0.36459,-0.10416 0.16927,-0.0651 0.27344,-0.10417 0.11718,-0.0521 0.20833,-0.0521 0.0781,0 0.14323,0.0521 0.0781,0.0391 0.11719,0.18229 0.0391,0.13021 0.0651,0.36458 0.0391,0.23438 0.0391,0.59896 0,0.36459 -0.026,0.58594 -0.013,0.20833 -0.0521,0.35156 -0.026,0.14323 -0.0781,0.2474 -0.0391,0.0911 -0.14323,0.18229 -0.10416,0.0781 -0.32552,0.16927 -0.22135,0.0911 -0.52083,0.15625 -0.29948,0.0781 -0.66406,0.11719 -0.35157,0.0391 -0.71615,0.0391 -0.97656,0 -1.69271,-0.24739 -0.71614,-0.2474 -1.18489,-0.75521 -0.46875,-0.52084 -0.69011,-1.30209 -0.22135,-0.78125 -0.22135,-1.84895 v -5.95053 h -1.39323 q -0.2474,0 -0.3776,-0.29947 -0.13021,-0.3125 -0.13021,-1.02865 0,-0.3776 0.026,-0.63802 0.0391,-0.26042 0.10417,-0.40365 0.0651,-0.15625 0.15625,-0.22135 0.10416,-0.0651 0.23437,-0.0651 h 1.38021 v -2.59114 q 0,-0.13021 0.0651,-0.23438 0.0781,-0.10416 0.26042,-0.16927 0.19531,-0.0781 0.50781,-0.10416 0.32552,-0.0391 0.79427,-0.0391 0.48177,0 0.79427,0.0391 0.32552,0.026 0.50782,0.10416 0.18229,0.0651 0.26041,0.16927 0.0781,0.10417 0.0781,0.23438 v 2.59114 h 4.98698 v -3.21614 q 0,-0.13021 0.0651,-0.23438 0.0781,-0.10416 0.26042,-0.16927 0.19531,-0.0651 0.50781,-0.10416 0.32552,-0.0391 0.79427,-0.0391 0.48177,0 0.79427,0.0391 0.32552,0.0391 0.50781,0.10416 0.1823,0.0651 0.26042,0.16927 0.0781,0.10417 0.0781,0.23438 v 3.21614 h 2.52604 q 0.13021,0 0.22135,0.0651 0.0911,0.0651 0.15625,0.22135 0.0781,0.14323 0.10417,0.40365 0.0391,0.26042 0.0391,0.63802 0,0.71615 -0.14323,1.02865 -0.13021,0.29947 -0.36458,0.29947 h -2.53906 v 5.45573 q 0,0.95052 0.28645,1.4323 0.29948,0.46875 1.08073,0.46875 0.26042,0 0.46875,-0.0391 0.20834,-0.0521 0.36459,-0.10416 0.15625,-0.0651 0.27343,-0.10417 0.11719,-0.0521 0.20834,-0.0521 0.0781,0 0.14323,0.0521 0.0651,0.0391 0.10416,0.18229 0.0521,0.13021 0.0781,0.36458 0.0391,0.23438 0.0391,0.59896 z" /><path
       id="path11839"
       style="font-style:normal;font-variant:normal;font-weight:bold;font-stretch:normal;font-size:26.66666603px;font-family:Calibri;-inkscape-font-specification:'Calibri Bold'"
       d="m 280.81459,174.92087 q 0,0.59896 -0.27344,0.88542 -0.26042,0.28646 -0.72917,0.28646 h -7.07031 q 0,0.74219 0.16927,1.35416 0.18229,0.59896 0.5599,1.02865 0.39062,0.41667 0.98958,0.63802 0.61198,0.22136 1.45834,0.22136 0.85937,0 1.51041,-0.11719 0.65104,-0.13021 1.11979,-0.27344 0.48177,-0.15625 0.79427,-0.27344 0.3125,-0.13021 0.50782,-0.13021 0.11718,0 0.19531,0.0521 0.0781,0.0391 0.13021,0.15625 0.0521,0.11719 0.0651,0.33854 0.026,0.20833 0.026,0.53385 0,0.28646 -0.013,0.4948 -0.013,0.19531 -0.0391,0.33854 -0.026,0.14323 -0.0781,0.24739 -0.0521,0.0911 -0.14323,0.18229 -0.0781,0.0911 -0.45573,0.2474 -0.37761,0.15625 -0.96354,0.3125 -0.58594,0.14323 -1.34115,0.2474 -0.75521,0.11718 -1.61458,0.11718 -1.54948,0 -2.72136,-0.39062 -1.15885,-0.39063 -1.9401,-1.1849 -0.78125,-0.79427 -1.17188,-2.00521 -0.3776,-1.21093 -0.3776,-2.83854 0,-1.54948 0.40364,-2.78646 0.40365,-1.25 1.17188,-2.10937 0.76823,-0.8724 1.86198,-1.32813 1.10677,-0.45572 2.48698,-0.45572 1.45833,0 2.48698,0.42968 1.04166,0.42969 1.70573,1.19792 0.66406,0.75521 0.97656,1.79687 0.3125,1.04167 0.3125,2.26563 z m -3.17708,-0.9375 q 0.0391,-1.38021 -0.5599,-2.16146 -0.58594,-0.79427 -1.82292,-0.79427 -0.625,0 -1.09375,0.23438 -0.45573,0.23437 -0.76823,0.63802 -0.29948,0.39062 -0.46875,0.9375 -0.15625,0.53385 -0.18229,1.14583 z" /><path
       id="path11841"
       style="font-style:normal;font-variant:normal;font-weight:bold;font-stretch:normal;font-size:26.66666603px;font-family:Calibri;-inkscape-font-specification:'Calibri Bold'"
       d="m 290.98386,170.53285 q 0,0.46875 -0.026,0.76823 -0.026,0.29948 -0.0781,0.46875 -0.0521,0.16927 -0.14323,0.23438 -0.0781,0.0651 -0.20834,0.0651 -0.10416,0 -0.23437,-0.0391 -0.13021,-0.0521 -0.29948,-0.10417 -0.15625,-0.0521 -0.35156,-0.0911 -0.19531,-0.0521 -0.42969,-0.0521 -0.27344,0 -0.54687,0.11719 -0.27344,0.10417 -0.57292,0.33854 -0.28646,0.23438 -0.61198,0.625 -0.3125,0.39063 -0.67708,0.96354 v 7.23959 q 0,0.1302 -0.0781,0.23437 -0.0781,0.0911 -0.27344,0.15625 -0.18229,0.0651 -0.49479,0.0911 -0.3125,0.0391 -0.79427,0.0391 -0.48177,0 -0.79427,-0.0391 -0.3125,-0.026 -0.50781,-0.0911 -0.18229,-0.0651 -0.26042,-0.15625 -0.0781,-0.10417 -0.0781,-0.23437 v -11.61459 q 0,-0.13021 0.0651,-0.22135 0.0651,-0.10417 0.23438,-0.16927 0.16927,-0.0651 0.42968,-0.0911 0.27344,-0.0391 0.67709,-0.0391 0.41666,0 0.6901,0.0391 0.27344,0.026 0.41667,0.0911 0.15625,0.0651 0.22135,0.16927 0.0651,0.0911 0.0651,0.22135 v 1.44532 q 0.45572,-0.65105 0.85937,-1.06771 0.40365,-0.42969 0.76823,-0.67709 0.36458,-0.24739 0.72917,-0.33854 0.36458,-0.10416 0.72916,-0.10416 0.16927,0 0.36459,0.026 0.19531,0.013 0.40364,0.0651 0.20834,0.0391 0.36459,0.10417 0.15625,0.0521 0.22135,0.11719 0.0781,0.0651 0.10417,0.14322 0.0391,0.0781 0.0651,0.22136 0.026,0.13021 0.0391,0.40364 0.013,0.27344 0.013,0.74219 z" /></g></g></svg>